<svg id="house_2_" data-name="house (2)" xmlns="http://www.w3.org/2000/svg" width="43.819" height="43.819" viewBox="0 0 43.819 43.819">
  <path id="Path_414" data-name="Path 414" d="M64.648,267.541l-21.91,15.54-21.91-15.54v5.295l21.91,15.54,21.91-15.54Z" transform="translate(-20.829 -244.556)" fill="#c99"/>
  <path id="Path_415" data-name="Path 415" d="M42.739,139.563l21.91-15.54-21.91-14.744-21.91,14.744Z" transform="translate(-20.829 -101.039)" fill="#cfe29a"/>
  <path id="Path_416" data-name="Path 416" d="M118.018,183.949l14.93-10.589-14.93-10.047-13.737,9.245a.993.993,0,0,0-.02,1.634Z" transform="translate(-96.108 -150.038)" fill="#9caa63"/>
  <path id="Path_417" data-name="Path 417" d="M277.91,272.836v-5.295L256,283.081v5.295Z" transform="translate(-234.09 -244.556)" fill="#a56767"/>
  <path id="Path_418" data-name="Path 418" d="M277.91,124.023,256,109.279v30.284Z" transform="translate(-234.09 -101.039)" fill="#9caa63"/>
  <path id="Path_419" data-name="Path 419" d="M163.9,132.133H142.807v13.2l10.546,7.48,10.546-7.48Z" transform="translate(-131.443 -121.763)" fill="#fff"/>
  <path id="Path_420" data-name="Path 420" d="M142.807,132.133v4.924l15.586,10.329V137.277l-11.365-5.144Z" transform="translate(-131.443 -121.763)" fill="#ccc"/>
  <path id="Path_421" data-name="Path 421" d="M176.434,251.523v-3.272a1.464,1.464,0,0,1,2.3-1.2,3.354,3.354,0,0,1,1.432,2.748l-.022,4.357Z" transform="translate(-161.937 -225.736)" fill="#425968"/>
  <path id="Path_422" data-name="Path 422" d="M266.546,145.329v-13.2H256v20.676Z" transform="translate(-234.09 -121.763)" fill="#ccc"/>
  <path id="Path_423" data-name="Path 423" d="M303.4,226.191V222.9l-3.164,2.1v3.435Z" transform="translate(-274.206 -204.078)" fill="#425968"/>
  <path id="Path_424" data-name="Path 424" d="M117.072,40.871l14.273-9.458L117.072,20.829,102.8,31.413Z" transform="translate(-95.162 -20.829)" fill="#fc7963"/>
  <path id="Path_425" data-name="Path 425" d="M270.273,31.413,256,20.829V40.871Z" transform="translate(-234.09 -20.829)" fill="#d83030"/>
</svg>
