<svg id="Group_505" data-name="Group 505" xmlns="http://www.w3.org/2000/svg" width="69.391" height="72.127" viewBox="0 0 69.391 72.127">
  <g id="checked" transform="translate(35.503 0)">
    <ellipse id="Ellipse_14" data-name="Ellipse 14" cx="16.944" cy="16.944" rx="16.944" ry="16.944" transform="translate(0)" fill="#9edcef"/>
  </g>
  <g id="long-term" transform="translate(0 5.464)">
    <path id="Path_522" data-name="Path 522" d="M27.392,23A16.392,16.392,0,1,0,43.785,39.392,16.411,16.411,0,0,0,27.392,23Zm8.025,28.1L34.35,49.256l-1.893,1.093,1.063,1.84a14.085,14.085,0,0,1-5.034,1.354V50.321H26.3v3.223a14.056,14.056,0,0,1-5.034-1.354l1.063-1.84-1.893-1.093L19.372,51.1a14.328,14.328,0,0,1-3.688-3.688l1.848-1.067-1.093-1.893L14.6,45.52a14.085,14.085,0,0,1-1.354-5.034h3.219V38.3H13.241A14.056,14.056,0,0,1,14.6,33.267l1.84,1.063,1.093-1.893-1.848-1.067a14.328,14.328,0,0,1,3.688-3.688l1.067,1.848,1.893-1.093L21.265,26.6A14.085,14.085,0,0,1,26.3,25.244v3.221h2.186V25.241A14.056,14.056,0,0,1,33.518,26.6l-1.063,1.84,1.893,1.093,1.067-1.848A14.328,14.328,0,0,1,39.1,31.369l-1.848,1.067,1.093,1.893,1.84-1.063A14.085,14.085,0,0,1,41.541,38.3H38.321v2.186h3.223a14.056,14.056,0,0,1-1.354,5.034l-1.84-1.063-1.093,1.893L39.1,47.414a14.281,14.281,0,0,1-3.687,3.69Z" transform="translate(-1.165 1.043)" fill="#797979"/>
    <path id="Path_523" data-name="Path 523" d="M27.186,30H25v8.743a1.092,1.092,0,0,0,.53.937l5.464,3.278,1.125-1.874-4.933-2.959Z" transform="translate(0.135 1.693)" fill="#797979"/>
    <path id="Path_524" data-name="Path 524" d="M54.018,1.219a1.092,1.092,0,0,0-1.749.874V6.464H10.743V8.65h42.62a1.092,1.092,0,0,0,1.093-1.093V4.279l10.26,7.695-10.26,8.55V16.3a1.092,1.092,0,0,0-1.093-1.093H28.228a26.228,26.228,0,0,0,0,52.456V66.569l.023,1.093h.134V65.476h-.162a24.042,24.042,0,0,1,0-48.084H52.27v5.464a1.093,1.093,0,0,0,1.792.839L67.176,12.768a1.093,1.093,0,0,0-.045-1.714Z" transform="translate(-2 -0.999)" fill="#797979"/>
    <path id="Path_525" data-name="Path 525" d="M36.322,59.962c.691-.328,1.368-.685,2.015-1.062l-1.1-1.89c-.593.346-1.215.674-1.85.977Z" transform="translate(1.099 4.2)" fill="#797979"/>
    <path id="Path_526" data-name="Path 526" d="M38.684,56.087l1.263,1.785c.616-.437,1.223-.906,1.8-1.394l-1.411-1.669c-.53.447-1.086.876-1.653,1.279Z" transform="translate(1.405 3.995)" fill="#797979"/>
    <path id="Path_527" data-name="Path 527" d="M47.262,43.846l2.111.564c.2-.729.36-1.479.491-2.227l-2.154-.376C47.59,42.493,47.44,43.178,47.262,43.846Z" transform="translate(2.201 2.789)" fill="#797979"/>
    <path id="Path_528" data-name="Path 528" d="M47.918,40.087l2.177.188c.066-.754.1-1.52.1-2.275H48.008C48.008,38.694,47.978,39.4,47.918,40.087Z" transform="translate(2.262 2.435)" fill="#797979"/>
    <path id="Path_529" data-name="Path 529" d="M44.055,50.724l1.791,1.255c.431-.614.843-1.262,1.224-1.928l-1.895-1.088c-.35.609-.727,1.2-1.12,1.762Z" transform="translate(1.904 3.453)" fill="#797979"/>
    <path id="Path_530" data-name="Path 530" d="M45.959,47.43l1.982.92c.319-.688.613-1.4.87-2.107L46.758,45.5C46.522,46.147,46.253,46.8,45.959,47.43Z" transform="translate(2.08 3.131)" fill="#797979"/>
    <path id="Path_531" data-name="Path 531" d="M30.508,61.8l-.39-2.152c-.673.122-1.37.217-2.071.283l.2,2.177C29.013,62.036,29.773,61.932,30.508,61.8Z" transform="translate(0.418 4.445)" fill="#797979"/>
    <path id="Path_532" data-name="Path 532" d="M33.8,58.643c-.655.242-1.323.456-1.99.638l.576,2.109c.728-.2,1.458-.433,2.169-.7Z" transform="translate(0.767 4.351)" fill="#797979"/>
    <path id="Path_533" data-name="Path 533" d="M41.6,53.64l1.55,1.543c.53-.533,1.047-1.1,1.537-1.685l-1.677-1.4C42.562,52.633,42.089,53.152,41.6,53.64Z" transform="translate(1.676 3.744)" fill="#797979"/>
    <path id="Path_534" data-name="Path 534" d="M2,6H4.186V8.186H2Z" transform="translate(-2 -0.535)" fill="#797979"/>
    <path id="Path_535" data-name="Path 535" d="M6,6H8.186V8.186H6Z" transform="translate(-1.629 -0.535)" fill="#797979"/>
  </g>
</svg>
