<svg id="data-analysis" xmlns="http://www.w3.org/2000/svg" width="64" height="64" viewBox="0 0 64 64">
  <path id="Path_943" data-name="Path 943" d="M56,37.915a1,1,0,0,1-1-.995v-.01a1,1,0,1,1,1,1.005Z"/>
  <path id="Path_944" data-name="Path 944" d="M57,62a2.006,2.006,0,0,1-2,2H9a2.006,2.006,0,0,1-2-2V2A2.006,2.006,0,0,1,9,0H48l1,1V8h7l1,1Z" fill="#faf2ff"/>
  <path id="Path_945" data-name="Path 945" d="M57,9H50a2.006,2.006,0,0,1-2-2V0Z" fill="#682a8f"/>
  <circle id="Ellipse_154" data-name="Ellipse 154" cx="13" cy="13" r="13" transform="translate(38 13)" fill="#682a8f"/>
  <g id="Group_687" data-name="Group 687">
    <path id="Path_946" data-name="Path 946" d="M32,10H18a1,1,0,0,1,0-2H32a1,1,0,0,1,0,2Z" fill="#57555c"/>
    <path id="Path_947" data-name="Path 947" d="M32,14H14a1,1,0,0,1,0-2H32a1,1,0,0,1,0,2Z" fill="#57555c"/>
    <path id="Path_948" data-name="Path 948" d="M32,18H14a1,1,0,0,1,0-2H32a1,1,0,0,1,0,2Z" fill="#57555c"/>
    <path id="Path_949" data-name="Path 949" d="M22,22H14a1,1,0,0,1,0-2h8a1,1,0,0,1,0,2Z" fill="#57555c"/>
    <path id="Path_950" data-name="Path 950" d="M49,45H43a1,1,0,0,1,0-2h6a1,1,0,0,1,0,2Z" fill="#57555c"/>
    <path id="Path_951" data-name="Path 951" d="M49,49H39a1,1,0,0,1,0-2H49a1,1,0,0,1,0,2Z" fill="#57555c"/>
    <path id="Path_952" data-name="Path 952" d="M49,53H39a1,1,0,0,1,0-2H49a1,1,0,0,1,0,2Z" fill="#57555c"/>
    <path id="Path_953" data-name="Path 953" d="M43,57H39a1,1,0,0,1,0-2h4a1,1,0,0,1,0,2Z" fill="#57555c"/>
    <path id="Path_954" data-name="Path 954" d="M32,28H18a1,1,0,0,1,0-2H32a1,1,0,0,1,0,2Z" fill="#57555c"/>
    <path id="Path_955" data-name="Path 955" d="M22,32H14a1,1,0,0,1,0-2h8a1,1,0,0,1,0,2Z" fill="#57555c"/>
    <circle id="Ellipse_155" data-name="Ellipse 155" cx="1" cy="1" r="1" transform="translate(25 20)" fill="#57555c"/>
    <circle id="Ellipse_156" data-name="Ellipse 156" cx="1" cy="1" r="1" transform="translate(25 30)" fill="#57555c"/>
    <circle id="Ellipse_157" data-name="Ellipse 157" cx="1" cy="1" r="1" transform="translate(46 55)" fill="#57555c"/>
  </g>
  <path id="Path_956" data-name="Path 956" d="M51,14V26H39A12,12,0,0,1,51,14Z" fill="#faf2ff"/>
  <path id="Path_957" data-name="Path 957" d="M59.49,34.49a12.023,12.023,0,0,1-16.98,0L51,26Z" fill="#e4b9ff"/>
  <path id="Path_958" data-name="Path 958" d="M63,26a11.962,11.962,0,0,1-3.51,8.49L51,26V14A12,12,0,0,1,63,26Z" fill="#682a8f"/>
  <path id="Path_959" data-name="Path 959" d="M51,26l-8.49,8.49A11.962,11.962,0,0,1,39,26Z" fill="#faf2ff"/>
  <path id="Path_960" data-name="Path 960" d="M5,57V47a1,1,0,0,1,1-1h4a1,1,0,0,1,1,1V57Z" fill="#e4b9ff"/>
  <path id="Path_961" data-name="Path 961" d="M11,57V43a1,1,0,0,1,1-1h4a1,1,0,0,1,1,1V57Z" fill="#682a8f"/>
  <path id="Path_962" data-name="Path 962" d="M17,57V45a1,1,0,0,1,1-1h4a1,1,0,0,1,1,1V57Z" fill="#e4b9ff"/>
  <path id="Path_963" data-name="Path 963" d="M23,57V38a1,1,0,0,1,1-1h4a1,1,0,0,1,1,1V57Z" fill="#682a8f"/>
  <path id="Path_964" data-name="Path 964" d="M33,58H1a1,1,0,0,1,0-2H33a1,1,0,0,1,0,2Z" fill="#682a8f"/>
</svg>
