<svg xmlns="http://www.w3.org/2000/svg" width="37.788" height="32.672" viewBox="0 0 37.788 32.672">
  <g id="budget" transform="translate(-2.647 -8.34)">
    <path id="Path_1043" data-name="Path 1043" d="M22.792,50.087a.664.664,0,0,1-.541-.3l-2.726-4.182a.44.44,0,0,1-.035-.062c-.576-1.117-1.825-2.1-3.008-1.715l-.273.088.809,1.486a.66.66,0,1,1-1.161.629L14.679,43.86a.664.664,0,0,1,.29-.91l.171-.07.932-.3c1.882-.611,3.72.708,4.573,2.335l2.709,4.156a.66.66,0,0,1-.55,1.02Z" transform="translate(-6.696 -19.096)" fill="#404040"/>
    <path id="Path_1044" data-name="Path 1044" d="M33.769,59.976H27.428a.659.659,0,0,1-.229-.044L12.5,54.475a.567.567,0,0,1-.145-.075L2.939,47.919a.664.664,0,0,1-.136-.976l.106-.123.682-.677c1.4-1.4,3.637-1.055,5.136,0l7.625,4.4h.976a4.085,4.085,0,0,1-.879-2.564.149.149,0,0,1,0-.044l.035-.378a.66.66,0,0,1,.655-.6H27.617a.673.673,0,0,1,.44.163l3.852,3.39h1.86a.66.66,0,1,1,0,1.319H31.658a.66.66,0,0,1-.44-.163l-3.852-3.39H17.8a2.871,2.871,0,0,0,.594,1.469,2.018,2.018,0,0,0,1.236.8h6a.66.66,0,0,1,0,1.319H16.188a.638.638,0,0,1-.334-.092l-2.2-1.28-5.607-3.21L8,47.241c-1.02-.734-2.581-1.042-3.461-.167l-.2.2,8.707,5.989,14.511,5.391h6.218a.66.66,0,1,1,0,1.319Z" transform="translate(0 -20.661)" fill="#404040"/>
    <path id="Path_1045" data-name="Path 1045" d="M76.512,65.193H72.59a.66.66,0,0,1-.66-.66V52.16a.66.66,0,0,1,.66-.66h6a.66.66,0,1,1,0,1.319H73.249V63.874h3.263a.66.66,0,0,1,0,1.319Z" transform="translate(-38.817 -24.181)" fill="#404040"/>
    <path id="Path_1046" data-name="Path 1046" d="M34.56,24.461a8.06,8.06,0,1,1,8.06-8.052A8.06,8.06,0,0,1,34.56,24.461Zm0-14.8A6.741,6.741,0,1,0,41.3,16.409,6.741,6.741,0,0,0,34.56,9.664Z" transform="translate(-13.364 0)" fill="#404040"/>
    <path id="Path_1047" data-name="Path 1047" d="M42.059,25.614H40.938a2.054,2.054,0,0,1-2.054-2.054v-.44a.66.66,0,0,1,1.319,0v.44a.734.734,0,0,0,.734.734h1.121a.734.734,0,0,0,.734-.734v-.95c0-.154-.048-.352-.4-.5l-2.3-.879a1.759,1.759,0,0,1-1.214-1.7v-.954a2.058,2.058,0,0,1,2.058-2.054h1.117a2.058,2.058,0,0,1,2.058,2.054v.44a.66.66,0,1,1-1.319,0v-.44a.739.739,0,0,0-.739-.734H40.938a.739.739,0,0,0-.739.734v.95a.44.44,0,0,0,.352.466l2.326.879A1.834,1.834,0,0,1,44.113,22.6v.95a2.058,2.058,0,0,1-2.054,2.067Z" transform="translate(-20.3 -4.583)" fill="#404040"/>
    <path id="Path_1048" data-name="Path 1048" d="M44.16,37.27a.66.66,0,0,1-.66-.66V35.16a.66.66,0,0,1,1.319,0v1.451A.66.66,0,0,1,44.16,37.27Z" transform="translate(-22.888 -14.656)" fill="#404040"/>
    <path id="Path_1049" data-name="Path 1049" d="M44.16,15.845a.66.66,0,0,1-.66-.66V13.77a.66.66,0,0,1,1.319,0v1.416a.66.66,0,0,1-.66.66Z" transform="translate(-22.888 -2.672)" fill="#404040"/>
  </g>
</svg>
