<svg xmlns="http://www.w3.org/2000/svg" width="67.78" height="61.158" viewBox="0 0 67.78 61.158">
  <g id="house_4_" data-name="house (4)" transform="translate(0 0)">
    <path id="Path_766" data-name="Path 766" d="M65.46,46.114a2.316,2.316,0,0,0,2.009-3.47L62.506,34a.992.992,0,0,0-.861-.5H57.123v-7.5a.993.993,0,0,0-.993-.993H49.493a.993.993,0,0,0-.993.993v7.5H36.736a.993.993,0,1,0,0,1.986H61.071l4.676,8.141a.331.331,0,0,1-.287.5H26.485l-8.336-6.444a.993.993,0,0,0-1.214,0L8.6,44.128H2.32a.331.331,0,0,1-.287-.5L6.71,35.492H32.765a.993.993,0,1,0,0-1.986H6.135a.993.993,0,0,0-.861.5L.312,42.643a2.317,2.317,0,0,0,2.009,3.47H3.973v11.98L.668,63.848A2.341,2.341,0,0,0,.646,66.19a2.243,2.243,0,0,0,1.969,1.136H3.973V80.24a2.318,2.318,0,0,0-1.986,2.29v2.648a.993.993,0,0,0,.993.993H26.609a.993.993,0,1,0,0-1.986H3.973V82.53A.331.331,0,0,1,4.3,82.2H63.476a.331.331,0,0,1,.331.331v1.655H30.581a.993.993,0,1,0,0,1.986H64.8a.993.993,0,0,0,.993-.993V82.53a2.318,2.318,0,0,0-1.986-2.29V70.272a.993.993,0,0,0-1.986,0v9.941H45.2V67.326h3.309V75.6a.993.993,0,0,0,.993.993h6.619a.993.993,0,0,0,.993-.993V67.326h7.994a2.316,2.316,0,0,0,2.009-3.47l-3.31-5.762V46.114H65.46ZM50.486,27h4.652v6.507H50.486Zm.009,24.41h4.633v1.986H50.5Zm4.633-1.986H50.5V46.114h4.633Zm-21.37,1.986h4.633v1.986H33.758Zm4.633-1.986H33.758V46.114h4.633Zm-27.725,17.9V75.6a.993.993,0,0,0,.993.993h6.619a.993.993,0,0,0,.993-.993V67.326H22.58V80.214H5.959V67.326Zm6.619,0v3.309H12.652V67.326Zm-4.633,5.3h4.633v1.986H12.652Zm23.555,7.593H31.574V67.326h4.633Zm1.986,0V66.333a.993.993,0,0,0-.993-.993H30.581a.993.993,0,0,0-.993.993V80.214H24.566V66.821l9.324-7.207,9.324,7.207V80.214Zm12.3-5.607V72.621h4.633v1.986Zm4.633-3.971H50.5V67.326h4.633Zm10.266-5.46a.32.32,0,0,1-.286.165H44.546L36.8,59.351H62.24L65.4,64.845A.32.32,0,0,1,65.395,65.175Zm-3.573-7.809H14.166a.993.993,0,1,0,0,1.986H30.982L23.234,65.34H2.616a.265.265,0,0,1-.247-.138.345.345,0,0,1,.016-.358l3.155-5.493h4.654a.993.993,0,1,0,0-1.986H5.959V46.114H8.937a.993.993,0,0,0,.607-.207l8-6.181,8,6.181a.992.992,0,0,0,.607.207h5.626v8.274a.993.993,0,0,0,.993.993h6.619a.993.993,0,0,0,.993-.993V46.114H48.51v8.274a.993.993,0,0,0,.993.993h6.619a.993.993,0,0,0,.993-.993V46.114h4.708Z" transform="translate(0 -25.013)" fill="#404040"/>
    <path id="Path_767" data-name="Path 767" d="M107.625,169.413h-6.619a.993.993,0,0,0-.993.993v9.266a.993.993,0,0,0,.993.993h6.619a.993.993,0,0,0,.993-.993v-9.266A.993.993,0,0,0,107.625,169.413Zm-.993,1.986v3.309H102V171.4ZM102,178.679v-1.986h4.633v1.986Z" transform="translate(-86.774 -150.298)" fill="#404040"/>
  </g>
</svg>
