<svg id="money-bag_5_" data-name="money-bag (5)" xmlns="http://www.w3.org/2000/svg" width="64" height="64" viewBox="0 0 64 64">
  <path id="Path_842" data-name="Path 842" d="M24.5,169.6a18.026,18.026,0,0,0-1.988.075H22.4C10.1,170.839,0,182.514,0,195.526,0,210.639,14.038,212.4,24.5,212.4c10.388,0,22.5-1.575,24.188-13.987C50.45,183.864,38.9,169.6,24.5,169.6Zm0,0" transform="translate(0 -148.401)" fill="#e4b9ff"/>
  <path id="Path_843" data-name="Path 843" d="M220.188,198.414C218.5,210.827,206.388,212.4,196,212.4V169.6C210.4,169.6,221.95,183.864,220.188,198.414Zm0,0" transform="translate(-171.5 -148.401)" fill="#682a8f"/>
  <path id="Path_844" data-name="Path 844" d="M117.1,6.225,113.355,17.6H94.83L91.08,6.225a1.807,1.807,0,0,1,.225-1.687,1.955,1.955,0,0,1,1.538-.788h5.962a5.6,5.6,0,0,1,10.575,0h5.962a1.955,1.955,0,0,1,1.538.788A1.807,1.807,0,0,1,117.1,6.225Zm0,0" transform="translate(-79.593)" fill="#e4b9ff"/>
  <path id="Path_845" data-name="Path 845" d="M209.012,6.225,205.262,17.6H196V0a5.644,5.644,0,0,1,5.288,3.75h5.962a1.955,1.955,0,0,1,1.538.788A1.807,1.807,0,0,1,209.012,6.225Zm0,0" transform="translate(-171.5)" fill="#682a8f"/>
  <path id="Path_846" data-name="Path 846" d="M161.949,259.438a5.562,5.562,0,0,1-3.712,5.25v1.688a1.875,1.875,0,0,1-3.75,0v-1.65a5.678,5.678,0,0,1-3.788-5.288,1.88,1.88,0,0,1,1.875-1.875,1.857,1.857,0,0,1,1.875,1.875,1.905,1.905,0,0,0,1.875,1.875h.038a1.872,1.872,0,0,0,1.837-1.875,1.848,1.848,0,0,0-1.837-1.875h-.038a5.666,5.666,0,0,1-5.625-5.625,5.6,5.6,0,0,1,3.788-5.288v-2.775a1.875,1.875,0,0,1,3.75,0v2.775a5.611,5.611,0,0,1,3.712,5.288,1.88,1.88,0,0,1-1.875,1.875,1.905,1.905,0,0,1-1.875-1.875,1.848,1.848,0,0,0-1.837-1.875h-.038a1.88,1.88,0,0,0-1.875,1.875,1.905,1.905,0,0,0,1.875,1.875h.038A5.609,5.609,0,0,1,161.949,259.438Zm0,0" transform="translate(-131.862 -211.75)" fill="#ffda2d"/>
  <path id="Path_847" data-name="Path 847" d="M327.375,275.75a3.761,3.761,0,0,1-3.75,3.75l-9.5,3.75-9.375-3.75a3.75,3.75,0,0,1,0-7.5h18.875A3.761,3.761,0,0,1,327.375,275.75Zm0,0" transform="translate(-263.375 -238)" fill="#ffda2d"/>
  <path id="Path_848" data-name="Path 848" d="M419.25,275.75a3.761,3.761,0,0,1-3.75,3.75l-9.5,3.75V272h9.5A3.761,3.761,0,0,1,419.25,275.75Zm0,0" transform="translate(-355.25 -238)" fill="#fdbf00"/>
  <path id="Path_849" data-name="Path 849" d="M327.375,335.75a3.761,3.761,0,0,1-3.75,3.75l-9.5,3.75-9.375-3.75a3.75,3.75,0,0,1,0-7.5h18.875A3.761,3.761,0,0,1,327.375,335.75Zm0,0" transform="translate(-263.375 -290.5)" fill="#fdbf00"/>
  <path id="Path_850" data-name="Path 850" d="M419.25,335.75a3.761,3.761,0,0,1-3.75,3.75l-9.5,3.75V332h9.5A3.761,3.761,0,0,1,419.25,335.75Zm0,0" transform="translate(-355.25 -290.5)" fill="#ff9100"/>
  <path id="Path_851" data-name="Path 851" d="M327.375,395.75a3.761,3.761,0,0,1-3.75,3.75l-9.5,3.75-9.375-3.75a3.75,3.75,0,0,1,0-7.5h18.875A3.761,3.761,0,0,1,327.375,395.75Zm0,0" transform="translate(-263.375 -343)" fill="#ffda2d"/>
  <path id="Path_852" data-name="Path 852" d="M419.25,395.75a3.761,3.761,0,0,1-3.75,3.75l-9.5,3.75V392h9.5A3.761,3.761,0,0,1,419.25,395.75Zm0,0" transform="translate(-355.25 -343)" fill="#fdbf00"/>
  <path id="Path_853" data-name="Path 853" d="M327.375,455.75a3.761,3.761,0,0,1-3.75,3.75H304.75a3.75,3.75,0,0,1,0-7.5h18.875A3.761,3.761,0,0,1,327.375,455.75Zm0,0" transform="translate(-263.375 -395.5)" fill="#fdbf00"/>
  <path id="Path_854" data-name="Path 854" d="M419.25,455.75a3.761,3.761,0,0,1-3.75,3.75H406V452h9.5A3.761,3.761,0,0,1,419.25,455.75Zm0,0" transform="translate(-355.25 -395.5)" fill="#ff9100"/>
  <path id="Path_855" data-name="Path 855" d="M117.25,124.75a3.761,3.761,0,0,1-3.75,3.75H94.75a3.75,3.75,0,0,1,0-7.5H113.5A3.761,3.761,0,0,1,117.25,124.75Zm0,0" transform="translate(-79.625 -105.875)" fill="#ffda2d"/>
  <g id="Group_621" data-name="Group 621" transform="translate(24.5 15.125)">
    <path id="Path_856" data-name="Path 856" d="M201.587,342.125a5.562,5.562,0,0,1-3.712,5.25v1.688A1.856,1.856,0,0,1,196,350.937V344a1.872,1.872,0,0,0,1.837-1.875A1.848,1.848,0,0,0,196,340.25V336.5A5.609,5.609,0,0,1,201.587,342.125Zm0,0" transform="translate(-196 -309.562)" fill="#fdbf00"/>
    <path id="Path_857" data-name="Path 857" d="M201.587,251.937a1.88,1.88,0,0,1-1.875,1.875,1.905,1.905,0,0,1-1.875-1.875A1.848,1.848,0,0,0,196,250.062V242a1.856,1.856,0,0,1,1.875,1.875v2.775A5.611,5.611,0,0,1,201.587,251.937Zm0,0" transform="translate(-196 -226.875)" fill="#fdbf00"/>
    <path id="Path_858" data-name="Path 858" d="M209.125,124.75a3.761,3.761,0,0,1-3.75,3.75H196V121h9.375A3.761,3.761,0,0,1,209.125,124.75Zm0,0" transform="translate(-196 -121)" fill="#fdbf00"/>
  </g>
</svg>
