<svg xmlns="http://www.w3.org/2000/svg" width="64" height="64" viewBox="0 0 64 64">
  <g id="geometry" transform="translate(-5 -5)">
    <path id="Path_1001" data-name="Path 1001" d="M31,35.72H61.719V12.962A7.959,7.959,0,0,0,53.77,5H31ZM43.94,13.068a1.333,1.333,0,0,1,2.29,0l6.72,13.44A1.28,1.28,0,0,1,51.8,28.36H38.365a1.28,1.28,0,0,1-1.145-1.853Z" transform="translate(7.281 0)" fill="#682a8f"/>
    <path id="Path_1002" data-name="Path 1002" d="M35.726,35.72V5H12.962A7.97,7.97,0,0,0,5,12.962V35.72Zm-22.08-20.8a1.28,1.28,0,0,1,1.28-1.28h13.44a1.28,1.28,0,0,1,1.28,1.28V28.36a1.28,1.28,0,0,1-1.28,1.28H14.926a1.28,1.28,0,0,1-1.28-1.28Z" transform="translate(0 0)" fill="#e4b9ff"/>
    <path id="Path_1003" data-name="Path 1003" d="M31,31V61.72H53.77a7.959,7.959,0,0,0,7.949-7.962V31Zm14.08,22.08a8,8,0,1,1,8-8A8.009,8.009,0,0,1,45.085,53.08Z" transform="translate(7.281 7.28)" fill="#e4b9ff"/>
    <path id="Path_1004" data-name="Path 1004" d="M35.726,31H5V53.758a7.97,7.97,0,0,0,7.962,7.962H35.726ZM29.271,52.7a1.28,1.28,0,0,1-1.81,0L21.646,46.89,15.831,52.7a1.28,1.28,0,0,1-1.81-1.81l5.815-5.815-5.815-5.815a1.28,1.28,0,0,1,1.81-1.81l5.815,5.815,5.815-5.815a1.28,1.28,0,0,1,1.81,1.81L23.456,45.08l5.815,5.815A1.28,1.28,0,0,1,29.271,52.7Z" transform="translate(0 7.28)" fill="#682a8f"/>
  </g>
</svg>
