<svg xmlns="http://www.w3.org/2000/svg" width="55" height="55" viewBox="0 0 55 55">
  <g id="Group_381" data-name="Group 381" transform="translate(-1139 -845)">
    <circle id="Ellipse_52" data-name="Ellipse 52" cx="27.5" cy="27.5" r="27.5" transform="translate(1139 845)" fill="#ffdede"/>
    <path id="close" d="M4.245,26.576a.815.815,0,0,0,1.153,0L15.415,16.56l10.02,10.016a.815.815,0,1,0,1.153-1.153L16.568,15.406,26.584,5.386a.815.815,0,0,0-1.153-1.153L15.415,14.253,5.395,4.237A.815.815,0,0,0,4.245,5.386l10.016,10.02L4.245,25.427a.815.815,0,0,0,0,1.149Z" transform="translate(1151.082 857.096)" fill="#4e4e4e"/>
  </g>
</svg>
