<svg xmlns="http://www.w3.org/2000/svg" width="68.265" height="61.158" viewBox="0 0 68.265 61.158">
  <g id="store_1_" data-name="store (1)" transform="translate(0 0)">
    <g id="Group_577" data-name="Group 577" transform="translate(18.133 39.946)">
      <g id="Group_576" data-name="Group 576">
        <path id="Path_724" data-name="Path 724" d="M137,326.255a1,1,0,0,0-1,1v1.8a1,1,0,0,0,2,0v-1.8A1,1,0,0,0,137,326.255Z" transform="translate(-136 -326.255)" fill="#404040"/>
      </g>
    </g>
    <g id="Group_579" data-name="Group 579" transform="translate(0 0)">
      <g id="Group_578" data-name="Group 578">
        <path id="Path_725" data-name="Path 725" d="M65.106,79.876H63.487V52.131a5.734,5.734,0,0,0,4.726-5.637v-3.85c0-.02,0-.039,0-.058s0-.022,0-.032a1,1,0,0,0-.017-.116l0-.007a.983.983,0,0,0-.03-.107l-.01-.026c-.011-.03-.023-.059-.037-.087l-.007-.016L63.685,33.4V28.8a2.155,2.155,0,0,0-2.153-2.153H16.06a1,1,0,1,0,0,2H61.532a.153.153,0,0,1,.153.153v3.846H6.579V28.8a.153.153,0,0,1,.153-.153h4.676a1,1,0,1,0,0-2H6.732A2.155,2.155,0,0,0,4.579,28.8v4.6L.158,42.2l-.007.016c-.014.028-.026.057-.037.087l-.01.026a.985.985,0,0,0-.03.107l0,.007a.978.978,0,0,0-.017.116c0,.011,0,.022,0,.032s0,.039,0,.058v3.85a5.734,5.734,0,0,0,4.726,5.637V79.876H3.158A3.162,3.162,0,0,0,0,83.034V86.2a1.614,1.614,0,0,0,1.612,1.612H66.653A1.614,1.614,0,0,0,68.265,86.2V83.034A3.162,3.162,0,0,0,65.106,79.876Zm1.107-33.381a3.726,3.726,0,0,1-7.452,0v-2.85h7.452v2.85Zm-4.14-11.846,3.517,7H58.465l-2.512-7Zm-8.246,0,2.512,7H49.117l-1.508-7Zm2.934,9v2.85a3.726,3.726,0,0,1-7.452,0v-2.85Zm-11.2-9,1.508,7H39.789l-.5-7Zm1.746,9v2.85a3.726,3.726,0,1,1-7.452,0v-2.85Zm-16.326-9h6.3l.5,7h-7.3Zm-.577,9h7.452v2.85a3.726,3.726,0,0,1-7.452,0Zm3.726,8.576a5.723,5.723,0,0,0,4.726-2.5,5.72,5.72,0,0,0,9.452,0,5.72,5.72,0,0,0,9.452,0,5.735,5.735,0,0,0,3.726,2.408V79.876H23.844V57.654a1.862,1.862,0,0,0-1.86-1.86H10.423a1.862,1.862,0,0,0-1.86,1.86V79.876H6.777V52.131A5.735,5.735,0,0,0,10.5,49.723a5.72,5.72,0,0,0,9.452,0,5.72,5.72,0,0,0,9.452,0A5.723,5.723,0,0,0,34.132,52.221ZM21.844,57.794V79.876H10.563V57.794ZM11.5,46.495v-2.85h7.452v2.85a3.726,3.726,0,0,1-7.452,0ZM22.7,34.649h6.277l-.5,7H21.193Zm-1.746,9h7.452v2.85a3.726,3.726,0,1,1-7.452,0v-2.85Zm-.3-9-1.508,7H11.925l2.512-7Zm-14.464,0h6.121l-2.512,7H2.674ZM2.052,46.495v-2.85H9.5v2.85a3.726,3.726,0,0,1-7.452,0ZM2,85.809V83.034a1.16,1.16,0,0,1,1.158-1.158H65.106a1.16,1.16,0,0,1,1.158,1.158v2.775Z" transform="translate(0 -26.651)" fill="#404040"/>
      </g>
    </g>
    <g id="Group_581" data-name="Group 581" transform="translate(25.933 29.144)">
      <g id="Group_580" data-name="Group 580">
        <path id="Path_726" data-name="Path 726" d="M225.469,245.235H213.241a1,1,0,1,0,0,2h12.088v15.737H196.5V247.235h12.033a1,1,0,0,0,0-2H196.36a1.862,1.862,0,0,0-1.86,1.86v16.018a1.862,1.862,0,0,0,1.86,1.86h29.109a1.862,1.862,0,0,0,1.86-1.86V247.095A1.862,1.862,0,0,0,225.469,245.235Z" transform="translate(-194.5 -245.235)" fill="#404040"/>
      </g>
    </g>
  </g>
</svg>
