<svg xmlns="http://www.w3.org/2000/svg" width="37.06" height="37.061" viewBox="0 0 37.06 37.061">
  <g id="file" transform="translate(0 0)">
    <path id="Path_444" data-name="Path 444" d="M228.874,222a6.37,6.37,0,1,0,6.37,6.37A6.377,6.377,0,0,0,228.874,222Zm0,11.292a4.922,4.922,0,1,1,4.922-4.922A4.928,4.928,0,0,1,228.874,233.292Zm0,0" transform="translate(-206.434 -205.931)" fill="#404040"/>
    <path id="Path_445" data-name="Path 445" d="M36.842,32.871,31.1,27.126a9.394,9.394,0,0,0-1.356-11.183V7.817h0a.722.722,0,0,0-.21-.512L22.437.212A.722.722,0,0,0,21.925,0a0,0,0,0,1,0,0H2.672A2.174,2.174,0,0,0,.5,2.172V34.889a2.174,2.174,0,0,0,2.172,2.172h24.9a2.174,2.174,0,0,0,2.172-2.172V32.713l3.629,3.629a2.455,2.455,0,1,0,3.471-3.471ZM22.939,30.4A7.962,7.962,0,1,1,30.9,22.439,7.971,7.971,0,0,1,22.939,30.4Zm-.291-27.93L27.27,7.093h-3.9a.725.725,0,0,1-.724-.724Zm5.645,32.418a.725.725,0,0,1-.724.724H2.672a.725.725,0,0,1-.724-.724V2.172a.725.725,0,0,1,.724-.724H21.2V6.369a2.174,2.174,0,0,0,2.172,2.172h4.921v6.165a9.408,9.408,0,0,0-14.3,10.638H5.144a.724.724,0,0,0,0,1.448h9.243a.718.718,0,0,0,.2-.028A9.4,9.4,0,0,0,27.626,30.6l.668.668Zm7.524.429a1.007,1.007,0,0,1-1.424,0L28.84,29.764a9.492,9.492,0,0,0,1.424-1.424l5.555,5.554A1.008,1.008,0,0,1,35.818,35.318Zm0,0" transform="translate(-0.5 0)" fill="#404040"/>
    <path id="Path_446" data-name="Path 446" d="M301.228,265a.724.724,0,0,0,0,1.448,1.812,1.812,0,0,1,1.809,1.809.724.724,0,1,0,1.448,0A3.261,3.261,0,0,0,301.228,265Zm0,0" transform="translate(-278.788 -245.822)" fill="#404040"/>
    <path id="Path_447" data-name="Path 447" d="M61.89,280.793H55.376a.724.724,0,0,0,0,1.448H61.89a.724.724,0,0,0,0-1.448Zm0,0" transform="translate(-50.733 -260.468)" fill="#404040"/>
    <path id="Path_448" data-name="Path 448" d="M62.319,211.461H55.376a.724.724,0,0,0,0,1.448h6.943a.724.724,0,0,0,0-1.448Zm0,0" transform="translate(-50.733 -196.154)" fill="#404040"/>
    <path id="Path_449" data-name="Path 449" d="M181.224,419.461a.723.723,0,1,0,.512.212A.728.728,0,0,0,181.224,419.461Zm0,0" transform="translate(-167.471 -389.098)" fill="#404040"/>
    <path id="Path_450" data-name="Path 450" d="M61.513,419.461H55.376a.724.724,0,0,0,0,1.448h6.137a.724.724,0,1,0,0-1.448Zm0,0" transform="translate(-50.733 -389.098)" fill="#404040"/>
    <path id="Path_451" data-name="Path 451" d="M55.372,143.577a.724.724,0,1,0-.512-.212A.728.728,0,0,0,55.372,143.577Zm0,0" transform="translate(-50.729 -131.841)" fill="#404040"/>
    <path id="Path_452" data-name="Path 452" d="M108.582,142.129H97.763a.724.724,0,1,0,0,1.448h10.819a.724.724,0,1,0,0-1.448Zm0,0" transform="translate(-90.051 -131.841)" fill="#404040"/>
    <path id="Path_453" data-name="Path 453" d="M55.376,74.241H69.263a.724.724,0,1,0,0-1.448H55.376a.724.724,0,1,0,0,1.448Zm0,0" transform="translate(-50.733 -67.524)" fill="#404040"/>
  </g>
</svg>
