<svg xmlns="http://www.w3.org/2000/svg" width="36.393" height="48.557" viewBox="0 0 36.393 48.557">
  <g id="documents" transform="translate(-64.129)">
    <path id="Path_536" data-name="Path 536" d="M99.051,6.842H97.481V5.273A1.473,1.473,0,0,0,96.01,3.8H86.654a1.472,1.472,0,0,0-1.287-.76H74.606a3.752,3.752,0,0,0-7.367,0H65.6a1.473,1.473,0,0,0-1.472,1.472V24.279a1.472,1.472,0,0,0,.76,1.287V44.045a1.473,1.473,0,0,0,1.472,1.472H67.93v1.569A1.473,1.473,0,0,0,69.4,48.557H99.051a1.473,1.473,0,0,0,1.472-1.472V8.314A1.473,1.473,0,0,0,99.051,6.842Zm-33.5-2.33a.049.049,0,0,1,.049-.049H67.17v6.891a3.752,3.752,0,0,0,7.5,0V8.314a2.232,2.232,0,0,0-4.463,0v1.52a.711.711,0,1,0,1.423,0V8.314a.809.809,0,1,1,1.618,0v3.041a2.33,2.33,0,1,1-4.659,0V3.75a2.33,2.33,0,0,1,4.548-.71H70.922a.711.711,0,1,0,0,1.423H85.367a.049.049,0,0,1,.049.049V24.279a.049.049,0,0,1-.049.049H65.6a.049.049,0,0,1-.049-.049ZM99.1,47.085a.049.049,0,0,1-.049.049H69.4a.049.049,0,0,1-.049-.049V45.516H89.3a2.217,2.217,0,0,0,1.578-.654l5.951-5.951a2.217,2.217,0,0,0,.654-1.578V12.115a.711.711,0,1,0-1.423,0V37.251H90.688a1.473,1.473,0,0,0-1.472,1.472v5.371H66.361a.049.049,0,0,1-.049-.049V25.75H85.367a1.473,1.473,0,0,0,1.471-1.472V5.224H96.01a.049.049,0,0,1,.049.049v3.8a.711.711,0,1,0,1.423,0V8.265h1.569a.049.049,0,0,1,.049.049V47.085Zm-8.46-4V38.723a.049.049,0,0,1,.049-.049h4.365Z" transform="translate(0)" fill="#404040"/>
    <path id="Path_537" data-name="Path 537" d="M201.114,105.632h3.8a.711.711,0,1,0,0-1.423h-3.8a.711.711,0,1,0,0,1.423Z" transform="translate(-123.35 -94.326)" fill="#404040"/>
    <path id="Path_538" data-name="Path 538" d="M201.114,145.714h3.8a.711.711,0,1,0,0-1.423h-3.8a.711.711,0,1,0,0,1.423Z" transform="translate(-123.35 -130.607)" fill="#404040"/>
    <path id="Path_539" data-name="Path 539" d="M112.937,185.794H125.1a.711.711,0,1,0,0-1.423H112.937a.711.711,0,1,0,0,1.423Z" transform="translate(-43.536 -166.886)" fill="#404040"/>
    <path id="Path_540" data-name="Path 540" d="M338.909,184.371h-1.52a.711.711,0,0,0,0,1.423h1.52a.711.711,0,1,0,0-1.423Z" transform="translate(-246.7 -166.886)" fill="#404040"/>
    <path id="Path_541" data-name="Path 541" d="M338.909,104.209h-1.52a.711.711,0,0,0,0,1.423h1.52a.711.711,0,1,0,0-1.423Z" transform="translate(-246.7 -94.326)" fill="#404040"/>
    <path id="Path_542" data-name="Path 542" d="M338.909,144.291h-1.52a.711.711,0,0,0,0,1.423h1.52a.711.711,0,1,0,0-1.423Z" transform="translate(-246.7 -130.607)" fill="#404040"/>
    <path id="Path_543" data-name="Path 543" d="M338.909,224.452h-1.52a.711.711,0,0,0,0,1.423h1.52a.711.711,0,1,0,0-1.423Z" transform="translate(-246.7 -203.165)" fill="#404040"/>
    <path id="Path_544" data-name="Path 544" d="M122.473,296.6h-1.521a.711.711,0,0,0,0,1.423h1.521a.711.711,0,0,0,0-1.423Z" transform="translate(-50.79 -268.468)" fill="#404040"/>
    <path id="Path_545" data-name="Path 545" d="M122.473,376.758h-1.521a.711.711,0,0,0,0,1.423h1.521a.711.711,0,0,0,0-1.423Z" transform="translate(-50.79 -341.027)" fill="#404040"/>
    <path id="Path_546" data-name="Path 546" d="M122.473,336.677h-1.521a.711.711,0,0,0,0,1.423h1.521a.711.711,0,0,0,0-1.423Z" transform="translate(-50.79 -304.747)" fill="#404040"/>
    <path id="Path_547" data-name="Path 547" d="M193.791,296.6H177.066a.711.711,0,0,0,0,1.423h16.725a.711.711,0,0,0,0-1.423Z" transform="translate(-101.583 -268.468)" fill="#404040"/>
    <path id="Path_548" data-name="Path 548" d="M187.71,376.758H177.066a.711.711,0,0,0,0,1.423H187.71a.711.711,0,1,0,0-1.423Z" transform="translate(-101.583 -341.027)" fill="#404040"/>
    <path id="Path_549" data-name="Path 549" d="M193.791,336.677H177.066a.711.711,0,0,0,0,1.423h16.725a.711.711,0,0,0,0-1.423Z" transform="translate(-101.583 -304.747)" fill="#404040"/>
  </g>
</svg>
