<svg id="Group_676" data-name="Group 676" xmlns="http://www.w3.org/2000/svg" width="37.25" height="37.25" viewBox="0 0 37.25 37.25">
  <g id="Rectangle_93" data-name="Rectangle 93" fill="#faf2ff" stroke="#682a8f" stroke-width="1">
    <rect width="37.25" height="37.25" rx="18.625" stroke="none"/>
    <rect x="0.5" y="0.5" width="36.25" height="36.25" rx="18.125" fill="none"/>
  </g>
  <path id="Icon_awesome-edit" data-name="Icon awesome-edit" d="M11.306,2.341l2.533,2.533a.275.275,0,0,1,0,.388L7.706,11.395,5.1,11.684a.546.546,0,0,1-.6-.6l.289-2.606,6.133-6.133A.275.275,0,0,1,11.306,2.341ZM15.856,1.7,14.485.327a1.1,1.1,0,0,0-1.55,0l-.994.994a.275.275,0,0,0,0,.388l2.533,2.533a.275.275,0,0,0,.388,0l.994-.994a1.1,1.1,0,0,0,0-1.55ZM10.784,9.727v2.859H1.8V3.6H8.251a.345.345,0,0,0,.239-.1L9.613,2.377A.337.337,0,0,0,9.374,1.8H1.348A1.348,1.348,0,0,0,0,3.15v9.885a1.348,1.348,0,0,0,1.348,1.348h9.885a1.348,1.348,0,0,0,1.348-1.348V8.6a.338.338,0,0,0-.576-.239L10.882,9.488A.345.345,0,0,0,10.784,9.727Z" transform="translate(11.537 11.43)" fill="#682a8f"/>
</svg>
