<svg id="bill_2_" data-name="bill (2)" xmlns="http://www.w3.org/2000/svg" width="38.918" height="40.569" viewBox="0 0 38.918 40.569">
  <path id="Path_589" data-name="Path 589" d="M25.625,33.9a.594.594,0,1,1,1.188,0v5.148l1.974-.9a.6.6,0,0,1,.492,0l2.57,1.175,2.569-1.175a.6.6,0,0,1,.492,0l2.57,1.175,2.57-1.175a.6.6,0,0,1,.492,0l2.57,1.175,2.57-1.175a.6.6,0,0,1,.492,0l1.974.9V4.4a3.209,3.209,0,0,0-3.207-3.207H25.423A4.386,4.386,0,0,1,26.813,4.4V31.211a.594.594,0,1,1-1.188,0V26.245H14.813a4.394,4.394,0,0,1-4.4-4.4V18.833a.594.594,0,1,1,1.188,0V21.85a3.207,3.207,0,1,0,6.415,0V13.717H11.605V16.14a.594.594,0,1,1-1.188,0V13.124a.6.6,0,0,1,.6-.6H18.02V9.168a.594.594,0,1,1,1.188,0V21.85a4.385,4.385,0,0,1-1.287,3.109l-.1.1h7.805V4.4a3.209,3.209,0,0,0-6.417,0v2.08a.594.594,0,1,1-1.188,0V4.4a4.4,4.4,0,0,1,4.4-4.4H44.939a4.394,4.394,0,0,1,4.4,4.4v35.58a.6.6,0,0,1-.84.539l-2.57-1.175-2.57,1.172a.587.587,0,0,1-.492,0l-2.57-1.175-2.567,1.172a.593.593,0,0,1-.494,0l-2.57-1.175L32.1,40.512a.593.593,0,0,1-.494,0L29.035,39.34l-2.522,1.152a.6.6,0,0,1-.887-.517V33.9Zm3.924-3.652H33.01a.594.594,0,0,1,.593.6v3.461a.592.592,0,0,1-.593.593H29.549a.594.594,0,0,1-.6-.593V30.848A.6.6,0,0,1,29.549,30.252Zm2.866,1.188H30.142v2.273h2.273ZM29.549,24.1H33.01a.592.592,0,0,1,.593.593v3.461a.594.594,0,0,1-.593.6H29.549a.6.6,0,0,1-.6-.6V24.693A.594.594,0,0,1,29.549,24.1Zm2.866,1.188H30.142v2.273h2.273Zm-2.866-7.342H33.01a.594.594,0,0,1,.593.6V22a.592.592,0,0,1-.593.593H29.549a.594.594,0,0,1-.6-.593V18.541A.6.6,0,0,1,29.549,17.946Zm2.866,1.188H30.142v2.273h2.273Zm2.873,15.114a.594.594,0,0,1,0-1.188h8.674a.594.594,0,1,1,0,1.188Zm0-2.152a.6.6,0,0,1,0-1.19h10.6a.6.6,0,0,1,0,1.19Zm0-4a.594.594,0,0,1,0-1.188h8.674a.594.594,0,1,1,0,1.188Zm0-2.154a.594.594,0,0,1,0-1.188h10.6a.594.594,0,1,1,0,1.188Zm0-4a.594.594,0,0,1,0-1.188h8.674a.594.594,0,1,1,0,1.188Zm0-2.154a.594.594,0,0,1,0-1.188h10.6a.594.594,0,1,1,0,1.188ZM36.9,3.176a.594.594,0,0,1,1.188,0v.672a3.311,3.311,0,0,1,1.673.728.593.593,0,1,1-.793.883,1.961,1.961,0,0,0-.88-.411V8.2c.191.074.393.146.6.222a2.75,2.75,0,0,1,1.772,1.714,2.879,2.879,0,0,1,.094,1.467,3.21,3.21,0,0,1-.609,1.35A3.047,3.047,0,0,1,38.084,14.1v.8a.594.594,0,0,1-1.188,0v-.75a4.085,4.085,0,0,1-.8-.108,4.243,4.243,0,0,1-1.341-.627.594.594,0,1,1,.651-.993,3.175,3.175,0,0,0,.975.469,2.876,2.876,0,0,0,.514.072V9a6.35,6.35,0,0,1-1.352-.773A2.038,2.038,0,0,1,34.857,7.2a2.545,2.545,0,0,1-.049-1.229,2.75,2.75,0,0,1,.526-1.152,2.443,2.443,0,0,1,1.235-.847,3.214,3.214,0,0,1,.328-.083Zm1.188,6.291v3.412a1.87,1.87,0,0,0,.925-.649,2,2,0,0,0,.38-.842,1.714,1.714,0,0,0-.052-.867,1.738,1.738,0,0,0-1.253-1.054ZM36.9,7.686V5.117a1.289,1.289,0,0,0-.631.438,1.509,1.509,0,0,0-.292.649A1.368,1.368,0,0,0,36,6.866a.834.834,0,0,0,.276.427A4.11,4.11,0,0,0,36.9,7.686Z" transform="translate(-10.417 0)" fill="#404040"/>
</svg>
