<svg id="Page-1" xmlns="http://www.w3.org/2000/svg" width="32.865" height="39.684" viewBox="0 0 32.865 39.684">
  <g id="_001---Jerry-Can" data-name="001---Jerry-Can" transform="translate(0 0)">
    <path id="Shape" d="M27.764.713H20.226a5.139,5.139,0,0,0-5.139,5.139V7.565a2.091,2.091,0,0,0-1.165.4L11.826,6.7a1.37,1.37,0,0,0-1.6.137l-.007.007C9.6,6.16,8.92,5.468,8.194,4.783c-.13-.123-.26-.24-.384-.356C6.858,3.556,5.953,2.8,5.035,2.111c-.144-.1-.295-.219-.452-.336A24.039,24.039,0,0,0,2.047.164a.685.685,0,0,0-.918.281L.122,2.3a.685.685,0,0,0,.233.9A19.5,19.5,0,0,1,2.164,4.6c.171.151.343.295.493.432.692.617,1.384,1.3,2.1,2.069.164.178.329.356.493.541C5.85,8.332,6.405,9,6.919,9.675a1.366,1.366,0,0,0-.377,1.542l.85,2.117a2.03,2.03,0,0,0-.528,1.37v23.01A2.056,2.056,0,0,0,8.92,39.771H30.848A2.056,2.056,0,0,0,32.9,37.715V5.852A5.139,5.139,0,0,0,27.764.713ZM18.513,7.565V5.852a1.713,1.713,0,0,1,1.713-1.713h6.167a1.713,1.713,0,0,1,1.713,1.713V7.565Z" transform="translate(-0.039 -0.087)" fill="#e64c3c"/>
    <path id="Shape-2" data-name="Shape" d="M39.816,6.139v7.88l-4.8-6.167V6.139a1.713,1.713,0,0,0-1.713-1.713H27.139a1.713,1.713,0,0,0-1.713,1.713V7.852H22V6.139A5.139,5.139,0,0,1,27.139,1h7.538A5.139,5.139,0,0,1,39.816,6.139Z" transform="translate(-6.951 -0.374)" fill="#c03a2b"/>
    <rect id="Rectangle-path" width="19.187" height="19.187" rx="1" transform="translate(10.252 17.071)" fill="#fb7b76"/>
    <path id="Shape-3" data-name="Shape" d="M12.388,8.839l-3.3,2.823-.007.007C8.571,11,8.016,10.326,7.413,9.634c-.164-.185-.329-.363-.493-.541L9.976,6.42c.123.116.254.233.384.356C11.086,7.462,11.765,8.154,12.388,8.839Z" transform="translate(-2.205 -2.08)" fill="#7f8c8d"/>
    <path id="Shape-4" data-name="Shape" d="M8.786,5.2,5.73,7.874c-.713-.767-1.4-1.453-2.1-2.069-.151-.137-.322-.281-.493-.432L5.559,2.55c.158.116.308.233.452.336C6.929,3.571,7.834,4.332,8.786,5.2Z" transform="translate(-1.015 -0.862)" fill="#95a5a5"/>
    <path id="Shape-5" data-name="Shape" d="M4.583,1.775,2.164,4.6A19.5,19.5,0,0,0,.355,3.207a.685.685,0,0,1-.233-.9L1.129.445A.685.685,0,0,1,2.047.164,24.039,24.039,0,0,1,4.583,1.775Z" transform="translate(-0.039 -0.087)" fill="#7f8c8d"/>
    <path id="Shape-6" data-name="Shape" d="M16.865,10.912a1.006,1.006,0,0,0-.089.069l-6.215,5.084a2.29,2.29,0,0,0-.226.219l-.85-2.117a1.366,1.366,0,0,1,.377-1.542l.007-.007,3.3-2.823.007-.007a1.37,1.37,0,0,1,1.6-.137Z" transform="translate(-2.981 -3.036)" fill="#c03a2b"/>
    <path id="Shape-7" data-name="Shape" d="M26.5,35.541l6.368-6.368A.685.685,0,0,0,31.9,28.2l-6.368,6.368L19.166,28.2a.685.685,0,0,0-.969.969l6.368,6.368L18.2,41.909a.685.685,0,1,0,.969.969l6.368-6.368L31.9,42.878a.685.685,0,0,0,.969-.969Z" transform="translate(-5.688 -8.877)" fill="#e64c3c"/>
    <path id="Shape-8" data-name="Shape" d="M16.685,18.8a.685.685,0,0,1-.439-1.211l4.111-3.426A.685.685,0,0,1,20.8,14h7.538a.685.685,0,1,1,0,1.37h-7.29l-3.921,3.267A.685.685,0,0,1,16.685,18.8Z" transform="translate(-5.063 -4.466)" fill="#fff"/>
  </g>
</svg>
