<svg id="clock_4_" data-name="clock (4)" xmlns="http://www.w3.org/2000/svg" width="45.015" height="45" viewBox="0 0 45.015 45">
  <path id="Path_466" data-name="Path 466" d="M134.147,60.309h-17.3a.659.659,0,1,0,0,1.319h17.3a.659.659,0,1,0,0-1.319Z" transform="translate(-105.975 -55.014)" fill="#404040"/>
  <path id="Path_467" data-name="Path 467" d="M134.147,135.1h-17.3a.659.659,0,1,0,0,1.319h17.3a.659.659,0,1,0,0-1.319Z" transform="translate(-105.975 -123.227)" fill="#404040"/>
  <path id="Path_468" data-name="Path 468" d="M134.147,209.886h-17.3a.659.659,0,1,0,0,1.319h17.3a.659.659,0,1,0,0-1.319Z" transform="translate(-105.975 -191.44)" fill="#404040"/>
  <path id="Path_469" data-name="Path 469" d="M274.063,264.589a9.386,9.386,0,1,0,9.386,9.386A9.4,9.4,0,0,0,274.063,264.589Zm0,17.453a8.067,8.067,0,1,1,8.067-8.067A8.076,8.076,0,0,1,274.063,282.042Z" transform="translate(-241.407 -241.334)" fill="#404040"/>
  <path id="Path_470" data-name="Path 470" d="M364.591,293.321a.659.659,0,0,0,.659-.659v-.3a.659.659,0,0,0-1.319,0v.3A.659.659,0,0,0,364.591,293.321Z" transform="translate(-331.935 -266.061)" fill="#404040"/>
  <path id="Path_471" data-name="Path 471" d="M412.923,313.025l-.214.214a.659.659,0,0,0,.932.933l.214-.214a.659.659,0,1,0-.932-.933Z" transform="translate(-376.247 -285.335)" fill="#404040"/>
  <path id="Path_472" data-name="Path 472" d="M432.64,364.5a.659.659,0,0,0,.659.659h.3a.659.659,0,1,0,0-1.319h-.3A.659.659,0,0,0,432.64,364.5Z" transform="translate(-394.602 -331.862)" fill="#404040"/>
  <path id="Path_473" data-name="Path 473" d="M292.748,363.844h-.3a.659.659,0,0,0,0,1.319h.3a.659.659,0,1,0,0-1.319Z" transform="translate(-266.133 -331.862)" fill="#404040"/>
  <path id="Path_474" data-name="Path 474" d="M413.641,412.621a.659.659,0,0,0-.932.933l.214.214a.659.659,0,1,0,.932-.933Z" transform="translate(-376.247 -376.175)" fill="#404040"/>
  <path id="Path_475" data-name="Path 475" d="M364.591,432.553a.659.659,0,0,0-.659.659v.3a.659.659,0,0,0,1.319,0v-.3A.659.659,0,0,0,364.591,432.553Z" transform="translate(-331.935 -394.53)" fill="#404040"/>
  <path id="Path_476" data-name="Path 476" d="M313.324,412.623l-.214.214a.659.659,0,0,0,.933.933l.214-.214a.659.659,0,0,0-.933-.933Z" transform="translate(-285.406 -376.176)" fill="#404040"/>
  <path id="Path_477" data-name="Path 477" d="M314.044,313.025a.659.659,0,0,0-.933.933l.214.214a.659.659,0,1,0,.933-.933Z" transform="translate(-285.406 -285.335)" fill="#404040"/>
  <path id="Path_478" data-name="Path 478" d="M366.389,327.74h-1.138v-2.821a.659.659,0,1,0-1.319,0v3.48a.659.659,0,0,0,.659.659h1.8a.659.659,0,0,0,0-1.319Z" transform="translate(-331.935 -295.759)" fill="#404040"/>
  <path id="Path_479" data-name="Path 479" d="M42.687,25.507a.659.659,0,1,0-1.07.771,11.047,11.047,0,1,1-1.675-1.845.659.659,0,1,0,.871-.991A12.345,12.345,0,0,0,33,20.374V10.068h5.631a1.275,1.275,0,0,0,1.274-1.274V4.2A4.119,4.119,0,0,0,35.864.086h-15.5a.659.659,0,0,0,0,1.319H32.782a4.1,4.1,0,0,0-1.1,2.793V20.406a12.352,12.352,0,0,0-8.752,4.7H10.875a.659.659,0,0,0,0,1.319H22.029a12.273,12.273,0,0,0-1.543,4.147H6.839V3.491A2.088,2.088,0,0,1,8.925,1.4h8.8a.659.659,0,0,0,0-1.319h-8.8a3.409,3.409,0,0,0-3.4,3.4V30.573H.659A.659.659,0,0,0,0,31.232v1.278a5.547,5.547,0,0,0,5.54,5.54H7.664a.659.659,0,1,0,0-1.319H5.54a4.226,4.226,0,0,1-4.222-4.222v-.619H20.326c-.019.276-.029.555-.029.835a12.307,12.307,0,0,0,.666,4.005H10.3a.659.659,0,1,0,0,1.319H21.5A12.358,12.358,0,1,0,42.687,25.507ZM38.589,4.2V8.749H33V4.2a2.793,2.793,0,1,1,5.586,0Z" transform="translate(0 -0.086)" fill="#404040"/>
</svg>
