<svg xmlns="http://www.w3.org/2000/svg" width="22.58" height="31.519" viewBox="0 0 22.58 31.519">
  <g id="Group_100" data-name="Group 100" transform="translate(-4.21 -5.74)">
    <g id="sand-clock" transform="translate(4.21 5.74)">
      <path id="Path_87" data-name="Path 87" d="M39.126,25.659a1.169,1.169,0,0,1,0-2.162c3.63-1.5,6.308-6.185,6.452-11.8H27.7c.145,5.612,2.822,10.3,6.454,11.8a1.169,1.169,0,0,1,0,2.162c-3.633,1.5-6.31,6.186-6.454,11.8H45.577c-.144-5.613-2.821-10.3-6.452-11.8Z" transform="translate(-25.349 -8.819)" fill="#fff"/>
      <path id="Path_88" data-name="Path 88" d="M35.26,47.324a15,15,0,0,0-1.121,4.206H48.845a15,15,0,0,0-1.121-4.206h-5.9c-.033-2.444-.051-8.117-.051-8.293a2.638,2.638,0,0,1,1.639-2.447c2.049-.844,3.731-2.975,4.686-5.71H34.882c.955,2.735,2.637,4.866,4.686,5.71a2.638,2.638,0,0,1,1.639,2.447c0,.175-.018,5.849-.051,8.293Z" transform="translate(-30.202 -23.271)" fill="#682a8f"/>
      <g id="Group_99" data-name="Group 99">
        <path id="Path_89" data-name="Path 89" d="M39.1,0H19.782a1.63,1.63,0,1,0,0,3.261H39.1A1.63,1.63,0,1,0,39.1,0Z" transform="translate(-18.152 0)" fill="#797979"/>
        <path id="Path_90" data-name="Path 90" d="M19.782,118.019H39.1a1.63,1.63,0,1,0,0-3.261H19.782a1.63,1.63,0,1,0,0,3.261Z" transform="translate(-18.152 -86.5)" fill="#797979"/>
      </g>
    </g>
  </g>
</svg>
