<svg id="money_·_bag_·_coin_·_payment_·_ecommerce" data-name="money · bag · coin · payment · ecommerce" xmlns="http://www.w3.org/2000/svg" width="40.571" height="40.569" viewBox="0 0 40.571 40.569">
  <path id="Path_647" data-name="Path 647" d="M22.7,38.7c.826,0,1.352.4,1.352.676a.676.676,0,0,0,1.352,0,2.208,2.208,0,0,0-2.028-1.961v-.744a.676.676,0,0,0-1.352,0v.744A2.205,2.205,0,0,0,20,39.381c0,1.137,1.188,2.028,2.7,2.028.826,0,1.352.4,1.352.676s-.527.676-1.352.676-1.352-.4-1.352-.676a.676.676,0,0,0-1.352,0,2.208,2.208,0,0,0,2.028,1.961v.744a.676.676,0,0,0,1.352,0v-.744a2.205,2.205,0,0,0,2.028-1.961c0-1.137-1.188-2.028-2.7-2.028-.826,0-1.352-.4-1.352-.676S21.879,38.7,22.7,38.7Z" transform="translate(-7.829 -13.011)" fill="#404040"/>
  <path id="Path_648" data-name="Path 648" d="M20.438,32a7.438,7.438,0,1,0,7.438,7.438A7.438,7.438,0,0,0,20.438,32Zm0,13.523a6.085,6.085,0,1,1,6.085-6.085,6.085,6.085,0,0,1-6.085,6.085Z" transform="translate(-5.562 -11.716)" fill="#404040"/>
  <path id="Path_649" data-name="Path 649" d="M47.7,26.761c-.826,0-1.352-.4-1.352-.676a.676.676,0,0,0-1.352,0,2.208,2.208,0,0,0,2.028,1.961v.744a.676.676,0,0,0,1.352,0v-.744a2.205,2.205,0,0,0,2.028-1.961c0-1.137-1.188-2.028-2.7-2.028-.826,0-1.352-.4-1.352-.676s.527-.676,1.352-.676,1.352.4,1.352.676a.676.676,0,1,0,1.352,0,2.208,2.208,0,0,0-2.028-1.961v-.744a.676.676,0,1,0-1.352,0v.744A2.205,2.205,0,0,0,45,23.381c0,1.137,1.188,2.028,2.7,2.028.826,0,1.352.4,1.352.676S48.53,26.761,47.7,26.761Z" transform="translate(-15.925 -7.829)" fill="#404040"/>
  <path id="Path_650" data-name="Path 650" d="M42.568,32.426a2.024,2.024,0,0,0-1.5-1.947,2,2,0,0,0,0-1.515,2.022,2.022,0,0,0-.527-3.976h-2.5a7.432,7.432,0,1,0-11.562-7.465,13.216,13.216,0,0,0-.994-1.143,12.052,12.052,0,0,0-2.718-2.035,2,2,0,0,0,.2-.852,2.032,2.032,0,0,0-.811-1.616l2.806-9A.671.671,0,0,0,24.312,2a3.462,3.462,0,0,0-2.258.8,2.221,2.221,0,0,1-2.921,0,3.584,3.584,0,0,0-4.523,0,2.212,2.212,0,0,1-2.914,0A3.462,3.462,0,0,0,9.437,2a.671.671,0,0,0-.642.879l2.982,9.547a2,2,0,0,0-.311,1.068,1.866,1.866,0,0,0,.088.554A12.109,12.109,0,0,0,4.7,24.989V36.8a1,1,0,0,1-.555.893l-.852.433a2.344,2.344,0,0,0,1.048,4.442H39.187a2.024,2.024,0,0,0,1.88-2.786,2.014,2.014,0,0,0,0-3.895,2,2,0,0,0,0-1.515A2.024,2.024,0,0,0,42.568,32.426ZM40.54,26.341a.676.676,0,0,1,0,1.352H28.369a.676.676,0,1,1,0-1.352Zm-14.2,3.381a.676.676,0,0,1,.676-.676H39.187a.676.676,0,1,1,0,1.352H27.017A.676.676,0,0,1,26.341,29.722Zm12.847,4.733a.676.676,0,1,1,0,1.352H27.017a.676.676,0,0,1,0-1.352ZM33.778,12.818A6.085,6.085,0,1,1,27.693,18.9a6.085,6.085,0,0,1,6.085-6.085ZM10.431,3.589A3.494,3.494,0,0,1,10.9,3.9a3.562,3.562,0,0,0,4.51,0,2.231,2.231,0,0,1,2.928,0,3.571,3.571,0,0,0,4.517,0,4.4,4.4,0,0,1,.467-.318l-2.461,7.884h-1.69L20.222,8.3a.678.678,0,0,0-1.285-.433l-1.2,3.6H16.03l-1.21-4.239a.676.676,0,1,0-1.3.365l1.1,3.874H13.494a2,2,0,0,0-.568.095Zm11.177,9.905a.676.676,0,0,1-.676.676H13.494a.676.676,0,1,1,0-1.352h7.438A.676.676,0,0,1,21.608,13.494Zm3.5,27.722H4.346a.995.995,0,0,1-.439-1.886l.852-.433a2.335,2.335,0,0,0,1.3-2.1V24.989a10.755,10.755,0,0,1,6.295-9.818,2.021,2.021,0,0,0,1.143.352h.412l-.379,1.136a.684.684,0,0,0,.426.859.844.844,0,0,0,.216.034.676.676,0,0,0,.642-.46l.521-1.569h3.611l.663,2.225a.678.678,0,0,0,1.3-.392l-.548-1.832h.575a2.064,2.064,0,0,0,.818-.176,10.594,10.594,0,0,1,2.772,1.995A10.48,10.48,0,0,1,26.415,19.9a7.407,7.407,0,0,0,3.1,5.085H28.369a2.024,2.024,0,0,0-1.88,2.786,2.014,2.014,0,0,0,0,3.895,2,2,0,0,0,0,1.515,2.014,2.014,0,0,0,0,3.895,2,2,0,0,0,0,1.515,2,2,0,0,0-1.379,2.623Zm14.077,0H27.017a.676.676,0,0,1,0-1.352H39.187a.676.676,0,0,1,0,1.352Zm2.028-3.381a.676.676,0,0,1-.676.676H28.369a.676.676,0,1,1,0-1.352H40.54A.676.676,0,0,1,41.216,37.835ZM40.54,33.1H28.369a.676.676,0,1,1,0-1.352H40.54a.676.676,0,1,1,0,1.352Z" transform="translate(-1.999 -2)" fill="#404040"/>
</svg>
