<svg xmlns="http://www.w3.org/2000/svg" width="53.472" height="53.472" viewBox="0 0 53.472 53.472">
  <g id="expenses" transform="translate(-8.257 -13.85)">
    <g id="Group_265" data-name="Group 265" transform="translate(8.257 13.85)">
      <circle id="Ellipse_30" data-name="Ellipse 30" cx="26.736" cy="26.736" r="26.736" transform="translate(0 0)" fill="#fff"/>
    </g>
    <g id="Group_266" data-name="Group 266" transform="translate(18.53 14.766)">
      <path id="Path_199" data-name="Path 199" d="M82.146,19.355a26.742,26.742,0,0,1-23.42,46.886,26.738,26.738,0,1,0,23.42-46.886Z" transform="translate(-58.726 -19.355)" fill="#fff"/>
    </g>
    <g id="Group_267" data-name="Group 267" transform="translate(20.732 15.592)">
      <path id="Path_200" data-name="Path 200" d="M91.761,22.83A26.741,26.741,0,0,1,67.993,70.441,26.739,26.739,0,1,0,91.761,22.83Z" transform="translate(-67.993 -22.83)" fill="#fff"/>
    </g>
    <g id="Group_272" data-name="Group 272" transform="translate(12.451 16.011)">
      <g id="Group_271" data-name="Group 271" transform="translate(0 0)">
        <path id="Path_203" data-name="Path 203" d="M33.622,38.095a.476.476,0,0,1-.421-.7A25.37,25.37,0,0,1,47.356,25.207a.475.475,0,0,1,.31.9A24.418,24.418,0,0,0,34.044,37.839.475.475,0,0,1,33.622,38.095ZM49.33,25.58a.475.475,0,0,1-.12-.935l.152-.039a.475.475,0,0,1,.233.922l-.144.037A.486.486,0,0,1,49.33,25.58Z" transform="translate(-33.147 -24.591)" fill="#fff"/>
      </g>
    </g>
    <g id="Group_273" data-name="Group 273" transform="translate(14.199 19.792)">
      <path id="Path_204" data-name="Path 204" d="M82.089,63.476V59.113A1.215,1.215,0,0,0,80.874,57.9H77.937a16.886,16.886,0,0,0-2.476-5.967l2.079-2.079a1.215,1.215,0,0,0,0-1.718l-3.085-3.085a1.215,1.215,0,0,0-1.718,0l-2.079,2.079a16.88,16.88,0,0,0-5.967-2.476V41.715A1.215,1.215,0,0,0,63.476,40.5H59.113A1.215,1.215,0,0,0,57.9,41.715v2.936a16.886,16.886,0,0,0-5.967,2.476l-2.079-2.079a1.215,1.215,0,0,0-1.718,0l-3.085,3.085a1.215,1.215,0,0,0,0,1.718l2.079,2.079A16.884,16.884,0,0,0,44.652,57.9H41.715A1.215,1.215,0,0,0,40.5,59.113v4.363a1.215,1.215,0,0,0,1.215,1.215h2.936a16.886,16.886,0,0,0,2.476,5.967l-2.079,2.079a1.215,1.215,0,0,0,0,1.718l3.085,3.085a1.215,1.215,0,0,0,1.718,0l2.079-2.079A16.884,16.884,0,0,0,57.9,77.938v2.936a1.215,1.215,0,0,0,1.215,1.215h4.363a1.215,1.215,0,0,0,1.215-1.215V77.938a16.886,16.886,0,0,0,5.967-2.476l2.079,2.079a1.215,1.215,0,0,0,1.718,0l3.085-3.085a1.215,1.215,0,0,0,0-1.718l-2.079-2.079a16.885,16.885,0,0,0,2.476-5.967h2.936a1.215,1.215,0,0,0,1.215-1.215Z" transform="translate(-40.5 -40.5)" fill="#893add"/>
    </g>
    <g id="Group_277" data-name="Group 277" transform="translate(31.599 37.192)">
      <g id="Group_274" data-name="Group 274" transform="translate(16.373)">
        <path id="Path_205" data-name="Path 205" d="M189.239,113.717c0,.008,0,.016,0,.024V118.1a1.215,1.215,0,0,1-1.215,1.215H185.09a16.886,16.886,0,0,1-2.476,5.967l1.188,1.188a16.884,16.884,0,0,0,2.476-5.967h2.936a1.215,1.215,0,0,0,1.215-1.215V114.93A1.214,1.214,0,0,0,189.239,113.717Z" transform="translate(-182.614 -113.717)" fill="#6c2bc1"/>
      </g>
      <g id="Group_275" data-name="Group 275" transform="translate(0 16.373)">
        <path id="Path_206" data-name="Path 206" d="M119.32,185.09v2.936a1.215,1.215,0,0,1-1.215,1.215h-4.363l-.024,0a1.214,1.214,0,0,0,1.213,1.191h4.363a1.215,1.215,0,0,0,1.215-1.215v-2.936a16.885,16.885,0,0,0,5.967-2.476l-1.188-1.188A16.886,16.886,0,0,1,119.32,185.09Z" transform="translate(-113.717 -182.614)" fill="#6c2bc1"/>
      </g>
      <g id="Group_276" data-name="Group 276" transform="translate(13.649 13.649)">
        <path id="Path_207" data-name="Path 207" d="M175.954,171.15a1.215,1.215,0,0,1,0,1.718l-3.085,3.085a1.215,1.215,0,0,1-1.718,0l1.188,1.188a1.215,1.215,0,0,0,1.718,0l3.085-3.085a1.215,1.215,0,0,0,0-1.718Z" transform="translate(-171.15 -171.15)" fill="#6c2bc1"/>
      </g>
    </g>
    <g id="Group_281" data-name="Group 281" transform="translate(19.63 23.297)">
      <path id="Path_209" data-name="Path 209" d="M122.962,114.363h-.713v-6.636h.713a3.322,3.322,0,0,1,3.318,3.318,1.024,1.024,0,0,0,2.047,0,5.371,5.371,0,0,0-5.365-5.365h-.713v-.713a1.024,1.024,0,0,0-2.047,0v.713h-.713a5.365,5.365,0,0,0,0,10.73h.713v8.373h-.713a3.322,3.322,0,0,1-3.318-3.318,1.024,1.024,0,0,0-2.047,0,5.371,5.371,0,0,0,5.365,5.365h.713v.713a1.024,1.024,0,1,0,2.047,0v-.713h.713a5.371,5.371,0,0,0,5.365-5.365v-1.737A5.371,5.371,0,0,0,122.962,114.363Zm-3.474,0a3.318,3.318,0,1,1,0-6.636h.713v6.636h-.713Zm6.792,7.1a3.322,3.322,0,0,1-3.318,3.318h-.713V116.41h.713a3.322,3.322,0,0,1,3.318,3.318Z" transform="translate(-106.727 -98.966)" fill="#fff"/>
    </g>
  </g>
</svg>
