<svg id="harvest" xmlns="http://www.w3.org/2000/svg" width="48.736" height="56.092" viewBox="0 0 48.736 56.092">
  <path id="Path_383" data-name="Path 383" d="M27.651,174.285.5,190.05v8.784l1.7.983,25.419-14.757,19.913,11.453,1.7-.983v-8.783Zm0,0" transform="translate(-0.5 -155.191)" fill="#f8db8f"/>
  <path id="Path_384" data-name="Path 384" d="M248.059,192.449l19.913,11.458v8.779l-19.913-11.453Zm0,0" transform="translate(-220.937 -171.365)" fill="#f7bd69"/>
  <path id="Path_385" data-name="Path 385" d="M49.236,186.747,27.651,174.285.5,190.05l1.7.983,25.413-14.755,19.92,11.456Zm0,0" transform="translate(-0.5 -155.191)" fill="#fff5ae"/>
  <path id="Path_386" data-name="Path 386" d="M27.651,85.605.5,101.37v8.784l1.7.983L27.621,96.38l19.913,11.454,1.7-.983V98.067Zm0,0" transform="translate(-0.5 -76.227)" fill="#f8db8f"/>
  <path id="Path_387" data-name="Path 387" d="M248.059,103.773l19.913,11.458v8.779l-19.913-11.454Zm0,0" transform="translate(-220.937 -92.405)" fill="#f7bd69"/>
  <path id="Path_388" data-name="Path 388" d="M49.236,98.071,27.651,85.609.5,101.373l1.7.983L27.615,87.6l19.92,11.456Zm0,0" transform="translate(-0.5 -76.23)" fill="#fff5ae"/>
  <path id="Path_389" data-name="Path 389" d="M206.594,21.418s3.042-6.394,2.736-11.736c-.151-2.631-2.125-5.794-4.091-8.327a3.488,3.488,0,0,0-6.084,1.083c-1.6,5.043-3.282,12.254-1.524,16.354C200.532,25.555,206.594,21.418,206.594,21.418Zm0,0" transform="translate(-175.368 -0.001)" fill="#1b6d40"/>
  <path id="Path_390" data-name="Path 390" d="M239.632,38.706a34.214,34.214,0,0,0-1.191-8.354,93.783,93.783,0,0,1-.125,9.447c-.338,4.158-1.241,10.841-1.241,10.841l1.413-.26A99.351,99.351,0,0,0,239.632,38.706Zm0,0" transform="translate(-211.156 -27.026)" fill="#a2bf26"/>
  <path id="Path_391" data-name="Path 391" d="M237.661,103.172a12.85,12.85,0,0,1-.262-8.809,16.03,16.03,0,0,1,8.03-9.6c2.786-1.461,6.067-1.934,7.04-.726.459.57-.434,11.979-3.887,16.925S237.661,103.172,237.661,103.172Zm0,0" transform="translate(-210.891 -74.215)" fill="#5b9617"/>
  <path id="Path_392" data-name="Path 392" d="M130.9,104.123s3.76-3.955,3.516-8.665-2.613-9.407-5.089-11.5c-3.015-2.546-7.193-3-7.819-1.927s-1.373,8.29-.138,13.145S127.938,103.677,130.9,104.123Zm0,0" transform="translate(-107.532 -72.561)" fill="#5b9617"/>
  <path id="Path_393" data-name="Path 393" d="M165.3,149.079s.969-11.536-.243-16.032c-1.7-6.3-5.328-8.988-5.328-8.988s3.445,5.544,4.092,10.157.028,13.715.028,13.715A1.554,1.554,0,0,0,165.3,149.079Zm0,0" transform="translate(-142.282 -110.467)" fill="#d8d836"/>
  <path id="Path_394" data-name="Path 394" d="M210.57,149.813s2.853-10.41,6-15.945a32.274,32.274,0,0,1,7.785-8.984s-5.841,7.945-7.778,12.647-4.173,11.554-4.173,11.554S212.3,149.677,210.57,149.813Zm0,0" transform="translate(-187.556 -111.201)" fill="#d8d836"/>
  <path id="Path_395" data-name="Path 395" d="M82.722,208.361s.654-3.747-.963-5.465-3.1-2.247-5.771-2.432-4.5.222-4.7.894,1.662,6.011,5.743,7.22S82.722,208.361,82.722,208.361Zm0,0" transform="translate(-63.517 -178.463)" fill="#249155"/>
  <path id="Path_396" data-name="Path 396" d="M96.347,228.591s-1.468-7.091-4.844-9.985-9.237-4.469-9.237-4.469,7.22,3.709,9.128,6.274,3.478,7.73,3.478,7.73S95.1,229.085,96.347,228.591Zm0,0" transform="translate(-73.308 -190.677)" fill="#d8d836"/>
  <path id="Path_397" data-name="Path 397" d="M284.822,224.808a8.645,8.645,0,0,1,4.308-2.734,12.089,12.089,0,0,1,3.953.032,2,2,0,0,1,1.453,2.959,8.267,8.267,0,0,1-4.842,4.021C285.031,230.435,282.889,227.221,284.822,224.808Zm0,0" transform="translate(-253.041 -197.61)" fill="#1b6d40"/>
  <path id="Path_398" data-name="Path 398" d="M229.026,239s-6.785.468-10.617,3.754A37.373,37.373,0,0,0,211.68,251l1.521-.038a23.419,23.419,0,0,1,5.365-6.756C222.428,240.717,229.026,239,229.026,239Zm0,0" transform="translate(-188.544 -212.816)" fill="#d8d836"/>
  <path id="Path_399" data-name="Path 399" d="M199.529,134.725s-1.992-.838-1.962-5.207,2.088-7.328,4.181-9.9a22.424,22.424,0,0,1,4.128-3.5,2.658,2.658,0,0,1,4.18,2.319c-.248,4.624-.844,11.081-2.27,13.652C205.455,136.285,199.529,134.725,199.529,134.725Zm0,0" transform="translate(-175.977 -102.957)" fill="#31ba55"/>
  <path id="Path_400" data-name="Path 400" d="M202.688,159.685s1.281-8.883,3.767-14.672a26.919,26.919,0,0,1,5.637-8.677s-5.062,9.073-6.283,15.2c-.805,4.042-1.6,8.209-1.6,8.209S204.055,160.076,202.688,159.685Zm0,0" transform="translate(-180.537 -121.4)" fill="#d8d836"/>
  <path id="Path_401" data-name="Path 401" d="M97.606,202.4c.981,4.023-1.687,7.247-5.71,8.229a7.5,7.5,0,0,1-9.061-5.507c-.981-4.023,1.779-7.316,5.8-8.3A7.447,7.447,0,0,1,97.606,202.4Zm0,0" transform="translate(-73.638 -175.071)" fill="#bf0025"/>
  <path id="Path_402" data-name="Path 402" d="M91.557,235.442a1.328,1.328,0,0,1-.624-.24,3.841,3.841,0,0,1-1.414-2.082,1.353,1.353,0,1,1,2.6-.767,1.281,1.281,0,0,0,.37.678,1.334,1.334,0,0,1-.927,2.411Zm0,0" transform="translate(-79.715 -206.032)" fill="#ea2642"/>
  <path id="Path_403" data-name="Path 403" d="M113.832,192.663a3.255,3.255,0,0,0-1.61-.115,1.887,1.887,0,0,1,.366-.594,5.566,5.566,0,0,1,1.537-1.226,5.921,5.921,0,0,0-2.391.45,1.994,1.994,0,0,0-.594.546c.039-.247.072-.49.083-.665.034-.536.026-1.187.026-1.187a2.437,2.437,0,0,0-1.082,1.239,2.743,2.743,0,0,0-.042.866,3.5,3.5,0,0,0-.752-.223,4.358,4.358,0,0,0-2.554.636,7.376,7.376,0,0,1,2.153.446,3.049,3.049,0,0,1,.8.368,4.57,4.57,0,0,0-1.67.956c-.917.971-.573,2.886-.573,2.886a13.746,13.746,0,0,1,1.951-2.563,3.117,3.117,0,0,1,.906-.624,4.308,4.308,0,0,0,0,1.016,8.574,8.574,0,0,0,1.419,2.648,11.67,11.67,0,0,0,.121-2.584,4.322,4.322,0,0,0-.423-1.383,8.325,8.325,0,0,1,1.147.042,6.479,6.479,0,0,1,3.16,1.428S115.094,193.1,113.832,192.663Zm0,0" transform="translate(-95.172 -169.07)" fill="#447111"/>
  <path id="Path_404" data-name="Path 404" d="M122.787,189.348l-.014,0a.534.534,0,0,1-.634-.408c-.006-.025-.4-1.771-1.556-2.292a.534.534,0,1,1,.44-.972,4.664,4.664,0,0,1,2.159,3.037A.534.534,0,0,1,122.787,189.348Zm0,0" transform="translate(-107.148 -165.295)" fill="#5b9617"/>
  <path id="Path_405" data-name="Path 405" d="M47.534,279.063l-25.456,14.78L2.205,282.358l-1.705.99v8.784L22.057,304.58v0h0v0l27.175-15.75v-8.784Zm0,0" transform="translate(-0.5 -248.49)" fill="#f7bd69"/>
  <path id="Path_406" data-name="Path 406" d="M224.477,288.031,197.3,303.784v8.784l27.176-15.753Zm0,0" transform="translate(-175.74 -256.476)" fill="#f8db8f"/>
  <path id="Path_407" data-name="Path 407" d="M49.236,280.045l-1.7-.983-25.456,14.78L2.2,282.368l-1.7.983L22.061,295.8h0Zm0,0" transform="translate(-0.5 -248.49)" fill="#fff5ae"/>
  <path id="Path_408" data-name="Path 408" d="M47.534,190.383l-25.456,14.78L2.205,193.678l-1.705.99v8.784L22.057,215.9v0h0v0l27.175-15.75v-8.784ZM14.022,206.052a.9.9,0,0,0,.02-.114c-.025-.012-.05-.022-.074-.036l-4.556-2.63A2.623,2.623,0,0,1,8.1,201a1.043,1.043,0,0,1,.007-.1c.025.012.05.022.074.036l4.556,2.631a2.622,2.622,0,0,1,1.312,2.272A.932.932,0,0,1,14.022,206.052Zm0,0" transform="translate(-0.5 -169.525)" fill="#f7bd69"/>
  <path id="Path_409" data-name="Path 409" d="M224.477,199.355,197.3,215.108v8.784l27.176-15.753Zm0,0" transform="translate(-175.74 -177.515)" fill="#f8db8f"/>
  <path id="Path_410" data-name="Path 410" d="M49.236,191.369l-1.7-.983-25.456,14.78L2.2,193.692l-1.7.983,21.561,12.448h0Zm0,0" transform="translate(-0.5 -169.529)" fill="#fff5ae"/>
  <path id="Path_411" data-name="Path 411" d="M65.17,290.667c-.025-.012-.05-.022-.074-.036L60.54,288a2.623,2.623,0,0,1-1.312-2.272.931.931,0,0,1,.007-.1l.046.023a.926.926,0,0,0-1.363.817,2.623,2.623,0,0,0,1.312,2.272l4.556,2.63a.927.927,0,0,0,1.364-.585A.884.884,0,0,0,65.17,290.667Zm0,0" transform="translate(-51.628 -254.255)" fill="#b98e4f"/>
  <path id="Path_412" data-name="Path 412" d="M123.93,332.557a1.033,1.033,0,0,0,.019-.1C123.944,332.489,123.937,332.523,123.93,332.557Zm0,0" transform="translate(-110.407 -296.031)" fill="#b98e4f"/>
  <path id="Path_413" data-name="Path 413" d="M65.1,290.634,60.54,288a2.623,2.623,0,0,1-1.312-2.272c0-.036,0-.07.007-.1a.927.927,0,0,0-1.317.84,2.623,2.623,0,0,0,1.312,2.272l4.556,2.63a.927.927,0,0,0,1.384-.7C65.145,290.659,65.12,290.648,65.1,290.634Zm0,0" transform="translate(-51.628 -254.258)" fill="#f8db8f"/>
</svg>
