<svg xmlns="http://www.w3.org/2000/svg" width="40.568" height="40.569" viewBox="0 0 40.568 40.569">
  <g id="layer1" transform="translate(-0.529 -0.529)">
    <path id="Ic_18" d="M1.9,33.662H1.2a.676.676,0,0,0-.673.673V37.72A3.385,3.385,0,0,0,3.909,41.1H29.6a3.385,3.385,0,0,0,3.379-3.378v-6.09A2.039,2.039,0,0,0,35.014,29.6v-.792A2.04,2.04,0,0,0,36.366,26.9V26.23a.676.676,0,0,0,0-1.352V23.525a.676.676,0,0,0,.118-1.342,4.705,4.705,0,0,1,.407-.615c.418-.547,1.022-1.186,1.643-1.936A9.643,9.643,0,0,0,41.1,13.348a8.865,8.865,0,0,0-8.948-8.759,8.958,8.958,0,0,0-1.873.2V2.567A2.043,2.043,0,0,0,28.256.536C22.064.512,15.361.557,8.791.561a.676.676,0,0,0-.626.18L2.081,6.825a.69.69,0,0,0-.2.494ZM5.42,19.167a8.776,8.776,0,0,0,12.528,9.513l4,4.981H3.249L3.233,7.977h5.41A.676.676,0,0,0,9.317,7.3V1.912c4.083,0,14.337-.048,18.927-.024a.631.631,0,0,1,.685.679V5.19a8.612,8.612,0,0,0-5.41,8.1,10.071,10.071,0,0,0,2.4,6.288c.58.757,1.14,1.4,1.532,1.956a4.457,4.457,0,0,1,.44.743.676.676,0,0,0,.364,1.244v1.352a.676.676,0,0,0,0,1.352V26.9A2.038,2.038,0,0,0,29.6,28.813V29.6a2.034,2.034,0,0,0,2.026,2.026v6.09a2.026,2.026,0,0,1-4.052,0V35.744c.068-.049.135-.1.2-.156a3.152,3.152,0,0,0,.244-4.638l-6.254-5.94a8.785,8.785,0,0,0-1.627-10.537V10.683A.676.676,0,0,0,19.46,10H16.754a.676.676,0,0,0-.673.679V12.03l-1.976,0A8.793,8.793,0,0,0,5.42,19.167ZM7.966,2.847V6.625H4.188Zm4.058,1.742a.676.676,0,1,0,0,1.352H24.192a.676.676,0,1,0,0-1.352ZM32.148,5.941a7.493,7.493,0,0,1,7.6,7.407,8.2,8.2,0,0,1-2.256,5.421c-.585.706-1.191,1.339-1.677,1.976a4.464,4.464,0,0,0-.795,1.427H32.982V18.394l1.832-1.837a.676.676,0,0,0-.959-.953l-1.546,1.548L30.755,15.6a.674.674,0,0,0-.953.953l1.826,1.832v3.783h-2.34a4.661,4.661,0,0,0-.738-1.412c-.454-.642-1.015-1.283-1.562-2a8.637,8.637,0,0,1-2.117-5.47A7.156,7.156,0,0,1,32.148,5.941Zm-.52,2.027a.676.676,0,0,0,.68.679,4.725,4.725,0,0,1,4.1,2.365.678.678,0,0,0,1.174-.679,6.085,6.085,0,0,0-5.27-3.039.676.676,0,0,0-.68.673ZM12.024,7.3a.677.677,0,1,0,0,1.354H22.166a.677.677,0,0,0,0-1.354Zm5.41,4.058h1.352v8.789H17.434ZM37.716,12.7a.676.676,0,1,0,.676.676A.676.676,0,0,0,37.716,12.7Zm-22.987.683h1.352v6.762H14.728Zm-1.352,2.031H11.344a.643.643,0,0,0-.436.156,6.1,6.1,0,1,0,9.224,5.319.43.43,0,0,0,.006-.07V16.536a7.439,7.439,0,1,1-6.763-3.127Zm-1.352,1.352h1.352v3.379H12.024Zm-1.354.7V20.82a.676.676,0,0,0,.673.679h7.394a4.735,4.735,0,0,1-9.14.918,4.784,4.784,0,0,1,1.072-4.948ZM29.6,23.525h5.41v1.352H29.6Zm-8.586,2.642,6.076,5.761a1.809,1.809,0,0,1-.2,2.63,1.875,1.875,0,0,1-2.676-.23l-5.095-6.349a8.74,8.74,0,0,0,1.894-1.813Zm8.586.062h5.41V26.9a.662.662,0,0,1-.679.675H30.276A.657.657,0,0,1,29.6,26.9Zm1.352,2.7H33.66V29.6a.66.66,0,0,1-.679.673H31.628a.656.656,0,0,1-.674-.673ZM1.882,35.014H23.031a3.212,3.212,0,0,0,3.192,1.3v1.4a3.355,3.355,0,0,0,.683,2.026h-23A2,2,0,0,1,1.882,37.72Z" transform="translate(0 0)" fill="#404040"/>
  </g>
</svg>
