<svg xmlns="http://www.w3.org/2000/svg" width="52" height="52" viewBox="0 0 52 52">
  <g id="Group_376" data-name="Group 376" transform="translate(-264 -472)">
    <circle id="Ellipse_57" data-name="Ellipse 57" cx="26" cy="26" r="26" transform="translate(264 472)" fill="#fdfdc5"/>
    <g id="sand-clock_3_" data-name="sand-clock (3)" transform="translate(281.061 484.188)">
      <path id="Path_356" data-name="Path 356" d="M163.366,101.536v.9a.4.4,0,1,0,.809,0v-.9h.268a4.592,4.592,0,0,0,4.587-4.587V95a.4.4,0,0,0-.4-.4h-9.71a.4.4,0,0,0-.4.4v1.953a4.592,4.592,0,0,0,4.587,4.587Zm-4.046-4.587V95.4h8.9v1.548a3.782,3.782,0,0,1-3.778,3.778H163.1A3.782,3.782,0,0,1,159.32,96.949Z" transform="translate(-154.831 -89.488)" fill="#4e4e4e"/>
      <path id="Path_357" data-name="Path 357" d="M106.75,24.747h-.281V20.465a7.468,7.468,0,0,0-.984-3.712,7.336,7.336,0,0,0-2.587-2.641.559.559,0,0,1,0-.953,7.335,7.335,0,0,0,2.587-2.641,7.467,7.467,0,0,0,.984-3.712V2.876h.281a1.438,1.438,0,1,0,0-2.876h-15a1.438,1.438,0,1,0,0,2.876h.281v3.93a7.468,7.468,0,0,0,.984,3.712A7.335,7.335,0,0,0,95.6,13.159a.559.559,0,0,1,0,.953,7.335,7.335,0,0,0-2.587,2.641,7.468,7.468,0,0,0-.984,3.712v4.282h-.281a1.438,1.438,0,0,0,0,2.876h7.313a.4.4,0,0,0,0-.809H91.747a.629.629,0,1,1,0-1.257h15a.629.629,0,1,1,0,1.257h-6.072a.4.4,0,1,0,0,.809h6.072a1.438,1.438,0,1,0,0-2.876ZM92.837,20.465a6.611,6.611,0,0,1,3.177-5.659,1.368,1.368,0,0,0,0-2.342,6.611,6.611,0,0,1-3.177-5.659V2.876h2.6a.4.4,0,1,0,0-.809H91.747a.629.629,0,0,1,0-1.257h15a.629.629,0,0,1,0,1.257h-9.42a.4.4,0,1,0,0,.809h8.33v3.93a6.611,6.611,0,0,1-3.177,5.659,1.368,1.368,0,0,0,0,2.342,6.611,6.611,0,0,1,3.177,5.659v4.282H92.837Z" transform="translate(-90.309 0)" fill="#4e4e4e"/>
      <path id="Path_358" data-name="Path 358" d="M168.936,360.662l-1.675-2.013a4.626,4.626,0,0,0-7.287.187l-1.383,1.843a.4.4,0,0,0,.324.647h9.71a.4.4,0,0,0,.311-.663Zm-9.211-.146.9-1.2a3.816,3.816,0,0,1,6.017-.155l1.123,1.35Z" transform="translate(-154.83 -337.705)" fill="#4e4e4e"/>
      <path id="Path_359" data-name="Path 359" d="M248.9,311.578a.4.4,0,0,0-.4.4v.62a.4.4,0,0,0,.809,0v-.62A.4.4,0,0,0,248.9,311.578Z" transform="translate(-239.965 -294.768)" fill="#4e4e4e"/>
      <path id="Path_360" data-name="Path 360" d="M249.309,265.809a.4.4,0,0,0-.809,0v.62a.4.4,0,1,0,.809,0Z" transform="translate(-239.965 -251.085)" fill="#4e4e4e"/>
    </g>
  </g>
</svg>
