<svg xmlns="http://www.w3.org/2000/svg" width="38.408" height="39.733" viewBox="0 0 38.408 39.733">
  <g id="analytics_1_" data-name="analytics (1)" transform="translate(-0.469)">
    <path id="Path_560" data-name="Path 560" d="M214.485,217.155l-2.077-.519a8.994,8.994,0,0,0-.688-1.656l1.1-1.837a.663.663,0,0,0-.1-.809l-2.067-2.07a.662.662,0,0,0-.809-.1l-1.837,1.1c-.238-.128-.483-.246-.733-.353a9.056,9.056,0,0,0-.927-.335l-.519-2.077a.662.662,0,0,0-.642-.5h-2.922a.662.662,0,0,0-.643.5l-.519,2.077a8.987,8.987,0,0,0-1.656.688l-1.837-1.1a.662.662,0,0,0-.809.1l-2.07,2.067a.662.662,0,0,0-.1.809l1.1,1.837a8.964,8.964,0,0,0-.688,1.656l-2.077.519a.662.662,0,0,0-.5.643v2.923a.662.662,0,0,0,.5.642l2.077.519a8.983,8.983,0,0,0,.688,1.656l-1.1,1.837a.662.662,0,0,0,.1.809l2.067,2.067a.662.662,0,0,0,.809.1l1.837-1.1a9,9,0,0,0,1.656.688l.519,2.077a.663.663,0,0,0,.643.5h2.923a.662.662,0,0,0,.642-.5l.519-2.077a9,9,0,0,0,1.656-.688l1.837,1.1a.663.663,0,0,0,.809-.1l2.067-2.067a.662.662,0,0,0,.1-.809l-1.1-1.837a9,9,0,0,0,.688-1.656l2.077-.519a.662.662,0,0,0,.5-.642V217.8A.662.662,0,0,0,214.485,217.155Zm-.822,3.048-1.949.488a.662.662,0,0,0-.482.48,7.67,7.67,0,0,1-.847,2.041.664.664,0,0,0,0,.68l1.035,1.722-1.333,1.339-1.722-1.035a.662.662,0,0,0-.679,0,7.677,7.677,0,0,1-2.041.846.662.662,0,0,0-.48.482l-.492,1.948h-1.889l-.487-1.949a.663.663,0,0,0-.48-.482,7.678,7.678,0,0,1-2.041-.847.663.663,0,0,0-.679,0l-1.722,1.035-1.339-1.333,1.035-1.722a.662.662,0,0,0,0-.679,7.676,7.676,0,0,1-.846-2.041.663.663,0,0,0-.482-.48l-1.948-.492v-1.889l1.949-.488a.662.662,0,0,0,.482-.48,7.671,7.671,0,0,1,.846-2.041.662.662,0,0,0,0-.68l-1.035-1.722,1.333-1.339,1.722,1.035a.662.662,0,0,0,.679,0,7.677,7.677,0,0,1,2.041-.846.663.663,0,0,0,.48-.482l.491-1.948h1.889l.488,1.949a.662.662,0,0,0,.479.482,7.642,7.642,0,0,1,2.041.846.663.663,0,0,0,.68,0l1.722-1.035,1.339,1.334-1.035,1.722a.663.663,0,0,0,0,.679,7.678,7.678,0,0,1,.847,2.041.662.662,0,0,0,.482.48l1.948.492Zm0,0" transform="translate(-176.105 -190.78)" fill="#404040"/>
    <path id="Path_561" data-name="Path 561" d="M269.767,280a5.3,5.3,0,1,0,5.3,5.3A5.3,5.3,0,0,0,269.767,280Zm0,9.272a3.974,3.974,0,1,1,3.974-3.974A3.974,3.974,0,0,1,269.767,289.272Zm0,0" transform="translate(-242.144 -256.819)" fill="#404040"/>
    <path id="Path_562" data-name="Path 562" d="M368.469,96h1.325v10.6h-1.325Zm0,0" transform="translate(-337.534 -88.052)" fill="#404040"/>
    <path id="Path_563" data-name="Path 563" d="M3.118,33.778v2.649a.662.662,0,0,0,.662.662H17.689V35.764H4.443V33.778H12.39a.664.664,0,0,0,.3-.066l2.649-1.325a.662.662,0,0,0,0-1.186l-2.649-1.325a.663.663,0,0,0-.3-.073H4.443V7.285H29.61a2.649,2.649,0,0,0,2.649-2.649V3.312a.662.662,0,0,0-.662-.662H29.61V3.974h1.325v.662a1.325,1.325,0,0,1-2.649,0V2.649A1.325,1.325,0,0,1,29.61,1.325h2.649a1.325,1.325,0,0,1,1.325,1.325V17.882h1.325V2.649A2.649,2.649,0,0,0,32.259,0H3.118A2.649,2.649,0,0,0,.469,2.649V4.636A2.649,2.649,0,0,0,3.118,7.285V29.8H2.456a1.987,1.987,0,1,0,0,3.974ZM1.793,4.636V2.649A1.325,1.325,0,0,1,3.118,1.325H27.329a2.621,2.621,0,0,0-.368,1.325V4.636a2.621,2.621,0,0,0,.368,1.325H3.118A1.325,1.325,0,0,1,1.793,4.636ZM13.558,31.791l-1.325.662h-.506V31.128h.506Zm-11.765,0a.662.662,0,0,1,.662-.662H10.4v1.325H2.456A.662.662,0,0,1,1.793,31.791Zm0,0" fill="#404040"/>
    <path id="Path_564" data-name="Path 564" d="M.469,120H1.793v13.246H.469Zm0,0" transform="translate(0 -110.065)" fill="#404040"/>
    <path id="Path_565" data-name="Path 565" d="M91.818,113.317v-1.325h-8.61a.662.662,0,0,0-.468.194l-1.21,1.21a7.261,7.261,0,0,0-9.434.729.662.662,0,0,0,0,.936l4.683,4.683a.663.663,0,0,0,.468.2H83.87a.662.662,0,0,0,.662-.662,7.254,7.254,0,0,0-2.006-5.006l.955-.955Zm-8.647,5.3H77.521l-4-4a5.941,5.941,0,0,1,7.054-.275l-1.815,1.815.937.937,1.892-1.892A5.938,5.938,0,0,1,83.17,118.615Zm0,0" transform="translate(-65.519 -102.72)" fill="#404040"/>
    <path id="Path_566" data-name="Path 566" d="M328.469,112h1.325v1.325h-1.325Zm0,0" transform="translate(-300.845 -102.728)" fill="#404040"/>
    <path id="Path_567" data-name="Path 567" d="M88.469,232h1.325v1.325H88.469Zm0,0" transform="translate(-80.715 -212.793)" fill="#404040"/>
    <path id="Path_568" data-name="Path 568" d="M120.469,232h6.623v1.325h-6.623Zm0,0" transform="translate(-110.065 -212.793)" fill="#404040"/>
    <path id="Path_569" data-name="Path 569" d="M72.469,264h10.6v1.325h-10.6Zm0,0" transform="translate(-66.039 -242.144)" fill="#404040"/>
    <path id="Path_570" data-name="Path 570" d="M248.469,144h1.325v1.325h-1.325Zm0,0" transform="translate(-227.469 -132.079)" fill="#404040"/>
    <path id="Path_571" data-name="Path 571" d="M280.469,144h5.3v1.325h-5.3Zm0,0" transform="translate(-256.819 -132.079)" fill="#404040"/>
    <path id="Path_572" data-name="Path 572" d="M248.469,176h7.948v1.325h-7.948Zm0,0" transform="translate(-227.469 -161.429)" fill="#404040"/>
    <path id="Path_573" data-name="Path 573" d="M72.469,296h8.61v1.325h-8.61Zm0,0" transform="translate(-66.039 -271.495)" fill="#404040"/>
  </g>
</svg>
