<svg xmlns="http://www.w3.org/2000/svg" width="60" height="61" viewBox="0 0 60 61">
  <g id="Group_378" data-name="Group 378" transform="translate(-0.297 0.284)">
    <ellipse id="Ellipse_55" data-name="Ellipse 55" cx="30" cy="30.5" rx="30" ry="30.5" transform="translate(0.297 -0.284)" fill="#ffecc1"/>
    <g id="salary_2_" data-name="salary (2)" transform="translate(12.478 10.59)">
      <g id="Group_373" data-name="Group 373" transform="translate(0 0)">
        <path id="Path_354" data-name="Path 354" d="M39.827,23.911a2.1,2.1,0,0,0-2.829-.6l-.609.268a10.064,10.064,0,0,0,.6-6.48,15.633,15.633,0,0,0-3.939-7.123.489.489,0,1,0-.721.661,14.673,14.673,0,0,1,3.705,6.674,8.774,8.774,0,0,1-1.148,6.93L28.8,26.923l.005-.688a.477.477,0,0,0,0-.052,3.066,3.066,0,0,0-2.628-2.739l-.013,0-5.413-.623c-2.082-.3-2.618-1.544-5.437-2.255a10.534,10.534,0,0,1,.776-5.177A18.644,18.644,0,0,1,22.159,7.9c1.083.768,5.917.864,7-.127.554.421,1.083.854,1.576,1.293a.489.489,0,1,0,.651-.731c-.54-.481-1.121-.956-1.73-1.415a1.742,1.742,0,0,0-.584-1.736C30.6,2.864,31.048,1.343,30.432.546A.855.855,0,0,0,29.259.366.785.785,0,0,1,28.32.332a1.759,1.759,0,0,0-2.06,0,.789.789,0,0,1-.989,0,1.759,1.759,0,0,0-2.06,0,.779.779,0,0,1-.937.031A.854.854,0,0,0,21.1.538c-.6.774-.2,2.247,1.23,4.492a1.594,1.594,0,0,0-.249.166,3.3,3.3,0,0,0-2.845-1.076A3.586,3.586,0,0,1,16.8,3.546a.489.489,0,1,0-.545.813,4.556,4.556,0,0,0,3.088.735,2.391,2.391,0,0,1,2.185.956q-.009.031-.017.063a8.4,8.4,0,0,0-1.552.169A4.6,4.6,0,0,0,16.775,8.32a.489.489,0,1,0,.845.494c.892-1.525,3.07-1.711,3.935-1.723l.012.032a19.333,19.333,0,0,0-6.39,7.9,11.613,11.613,0,0,0-.873,5.342,10.182,10.182,0,0,0-1.421-.11v-.3a1.421,1.421,0,0,0-1.42-1.42H9.217a1.422,1.422,0,0,0-1.42,1.42v11.4a1.421,1.421,0,0,0,1.42,1.42h2.246a1.422,1.422,0,0,0,1.42-1.42v-.139l4.9,1.824a5.862,5.862,0,0,0,2.051.369h7.3a5.871,5.871,0,0,0,3.147-.913c9.739-6.174,9.148-5.79,9.2-5.84a2.1,2.1,0,0,0,.341-2.743ZM28.24,7.2a10.605,10.605,0,0,1-5.319,0c-.768-.194-.545-1.564.28-1.357a9.542,9.542,0,0,0,4.759,0C28.771,5.635,29.02,7,28.24,7.2ZM21.827,1.234l.011.006a1.736,1.736,0,0,0,1.909-.089c.834-.546.924.329,2.019.329a1.7,1.7,0,0,0,1.03-.329.789.789,0,0,1,.989,0,1.745,1.745,0,0,0,1.917.088c.1.363-.127,1.445-1.578,3.605A9.966,9.966,0,0,1,23.4,4.88c-1.448-2.188-1.672-3.281-1.57-3.646ZM38.863,25.9l-9.1,5.769a4.894,4.894,0,0,1-2.623.761h-7.3a4.886,4.886,0,0,1-1.71-.308L12.883,30.17V24.9a.489.489,0,1,0-.979,0v6.453a.442.442,0,0,1-.441.441H9.217a.442.442,0,0,1-.441-.441v-11.4a.442.442,0,0,1,.441-.441h2.246a.442.442,0,0,1,.441.441v2.655a.489.489,0,1,0,.979,0V21.233c4.048.031,4.958,2.164,7.731,2.557l.013,0,5.413.623a2.09,2.09,0,0,1,1.783,1.842l-.007.931H22.767a.489.489,0,0,0,0,.979H28.3a.507.507,0,0,0,.2-.041l8.9-3.919c.64-.284,1.224-.325,1.62.257A1.118,1.118,0,0,1,38.863,25.9Z" transform="translate(-7.797 0.001)" fill="#4e4e4e"/>
        <path id="Path_355" data-name="Path 355" d="M242.65,167.4a.489.489,0,0,0,.489-.489V166.1a2.867,2.867,0,0,0,2.349-2.372,2.51,2.51,0,0,0-1.729-2.871c-.224-.079-.43-.155-.621-.228v-3.12a2.011,2.011,0,0,1,.952.418.489.489,0,0,0,.661-.722,3.032,3.032,0,0,0-1.612-.684v-.7a.489.489,0,1,0-.979,0v.735a3.613,3.613,0,0,0-.363.089,2.366,2.366,0,0,0-1.619,1.857,2.069,2.069,0,0,0,.672,2.04,5.929,5.929,0,0,0,1.31.74v3.869a2.6,2.6,0,0,1-1.522-.528.489.489,0,0,0-.536.819,3.584,3.584,0,0,0,2.057.687v.777a.489.489,0,0,0,.489.489Zm-1.2-7.624a1.1,1.1,0,0,1-.315-1.088,1.4,1.4,0,0,1,.94-1.1l.081-.022V160.2A4.128,4.128,0,0,1,241.455,159.772Zm1.979,2a1.54,1.54,0,0,1,1.09,1.786,1.906,1.906,0,0,1-1.384,1.534V161.67Z" transform="translate(-224.738 -145.196)" fill="#4e4e4e"/>
      </g>
    </g>
  </g>
</svg>
