<svg id="Group_506" data-name="Group 506" xmlns="http://www.w3.org/2000/svg" width="68.604" height="71.308" viewBox="0 0 68.604 71.308">
  <g id="checked" transform="translate(0 0)">
    <ellipse id="Ellipse_14" data-name="Ellipse 14" cx="16.752" cy="16.752" rx="16.752" ry="16.752" transform="translate(0 0)" fill="#f4b5b5"/>
  </g>
  <g id="long-term" transform="translate(3.779 5.402)">
    <path id="Path_522" data-name="Path 522" d="M27.206,23A16.206,16.206,0,1,1,11,39.206,16.225,16.225,0,0,1,27.206,23ZM19.273,50.785l1.054-1.827,1.871,1.08-1.051,1.819A13.925,13.925,0,0,0,26.124,53.2V50.01h2.161V53.2a13.9,13.9,0,0,0,4.976-1.339L32.21,50.038l1.871-1.08,1.054,1.827a14.165,14.165,0,0,0,3.646-3.646l-1.827-1.054,1.08-1.871,1.819,1.051a13.925,13.925,0,0,0,1.339-4.976H38.01V38.127H41.2a13.9,13.9,0,0,0-1.339-4.976L38.038,34.2l-1.08-1.871,1.827-1.054a14.166,14.166,0,0,0-3.646-3.646l-1.054,1.827-1.871-1.08,1.051-1.819a13.925,13.925,0,0,0-4.976-1.339V28.4H26.127V25.216a13.9,13.9,0,0,0-4.976,1.339L22.2,28.374l-1.871,1.08-1.054-1.827a14.165,14.165,0,0,0-3.646,3.646l1.827,1.054L16.376,34.2l-1.819-1.051a13.925,13.925,0,0,0-1.339,4.976H16.4v2.161H13.216a13.9,13.9,0,0,0,1.339,4.976l1.819-1.051,1.08,1.871-1.827,1.054a14.119,14.119,0,0,0,3.645,3.649Z" transform="translate(11.688 0.77)" fill="#797979"/>
    <path id="Path_523" data-name="Path 523" d="M29.877,30h2.161v8.643a1.08,1.08,0,0,1-.524.926l-5.4,3.241L25,40.958l4.877-2.926Z" transform="translate(7.937 1.333)" fill="#797979"/>
    <path id="Path_524" data-name="Path 524" d="M15.4,1.216a1.08,1.08,0,0,1,1.729.864V6.4H58.181V8.563H16.045a1.079,1.079,0,0,1-1.08-1.08V4.241L4.82,11.848,14.964,20.3V16.126a1.079,1.079,0,0,1,1.08-1.08h24.85a25.93,25.93,0,0,1,0,51.86v-1.08l-.023,1.08h-.133V64.743h.16a23.769,23.769,0,0,0,0-47.538H17.125v5.4a1.081,1.081,0,0,1-1.772.83L2.388,12.634a1.08,1.08,0,0,1,.044-1.694Z" transform="translate(-2 -0.999)" fill="#797979"/>
    <path id="Path_525" data-name="Path 525" d="M37.377,59.928c-.683-.324-1.353-.677-1.992-1.05l1.089-1.868c.587.343,1.2.667,1.829.966Z" transform="translate(-9.549 3.505)" fill="#797979"/>
    <path id="Path_526" data-name="Path 526" d="M41.713,56.072l-1.249,1.764c-.609-.432-1.209-.9-1.781-1.379l1.395-1.65c.524.442,1.074.866,1.635,1.264Z" transform="translate(-16.523 3.328)" fill="#797979"/>
    <path id="Path_527" data-name="Path 527" d="M49.834,43.823l-2.087.557c-.193-.721-.355-1.462-.485-2.2l2.129-.372C49.51,42.486,49.658,43.163,49.834,43.823Z" transform="translate(-33.912 2.282)" fill="#797979"/>
    <path id="Path_528" data-name="Path 528" d="M50.167,40.064l-2.152.186c-.065-.745-.1-1.5-.1-2.249h2.161C50.079,38.686,50.108,39.38,50.167,40.064Z" transform="translate(-34.954 1.976)" fill="#797979"/>
    <path id="Path_529" data-name="Path 529" d="M47.036,50.7l-1.771,1.24c-.426-.607-.833-1.248-1.21-1.906l1.873-1.076C46.274,49.564,46.647,50.149,47.036,50.7Z" transform="translate(-27.649 2.858)" fill="#797979"/>
    <path id="Path_530" data-name="Path 530" d="M48.779,47.408l-1.96.91c-.315-.681-.606-1.381-.86-2.083l2.03-.739C48.222,46.14,48.488,46.784,48.779,47.408Z" transform="translate(-31.449 2.579)" fill="#797979"/>
    <path id="Path_531" data-name="Path 531" d="M28.047,61.774l.386-2.127c.666.121,1.355.215,2.047.28l-.2,2.152C29.525,62.009,28.774,61.906,28.047,61.774Z" transform="translate(6.203 3.717)" fill="#797979"/>
    <path id="Path_532" data-name="Path 532" d="M32.553,58.643c.647.239,1.308.451,1.967.631l-.569,2.085c-.72-.2-1.441-.428-2.145-.688Z" transform="translate(-1.899 3.636)" fill="#797979"/>
    <path id="Path_533" data-name="Path 533" d="M44.654,53.623l-1.532,1.526c-.524-.527-1.035-1.088-1.519-1.666L43.261,52.1c.444.53.912,1.044,1.393,1.527Z" transform="translate(-22.618 3.11)" fill="#797979"/>
    <path id="Path_534" data-name="Path 534" d="M4.161,6H2V8.161H4.161Z" transform="translate(60.663 -0.597)" fill="#797979"/>
    <path id="Path_535" data-name="Path 535" d="M8.161,6H6V8.161H8.161Z" transform="translate(52.342 -0.597)" fill="#797979"/>
  </g>
</svg>
