<svg xmlns="http://www.w3.org/2000/svg" width="55" height="55" viewBox="0 0 55 55">
  <g id="Group_377" data-name="Group 377" transform="translate(-264 -416)">
    <circle id="Ellipse_56" data-name="Ellipse 56" cx="27.5" cy="27.5" r="27.5" transform="translate(264 416)" fill="#fce3ff"/>
    <path id="pen" d="M17.55,14.922a4.853,4.853,0,0,0-1.2-1.986L4.677,1.262a.44.44,0,0,0-.621,0l-.065.065L3.068.392a1.318,1.318,0,0,0-1.877,0L.65.941A1.322,1.322,0,0,0,.656,2.8l.928.928-.341.337a2.2,2.2,0,0,0-.009,3.116L4.751,10.7a.439.439,0,1,0,.621-.621L1.855,6.559a1.318,1.318,0,0,1-.029-1.834L7.087,9.986l.961.961.622.621,4.524,4.524a4.853,4.853,0,0,0,1.986,1.2l2.638.818a.439.439,0,0,0,.55-.55ZM1.275,1.558l.541-.549a.44.44,0,0,1,.626,0l.926.938-1.16,1.16-.931-.931A.441.441,0,0,1,1.275,1.558Zm1.177,2.55L4.366,2.194,9.03,6.858,7.116,8.772ZM7.738,9.394,9.652,7.479l.932.932L8.67,10.326Zm1.554,1.554,1.914-1.914,4.524,4.524q.068.069.133.141L13.956,15.6c-.048-.043-.1-.088-.141-.133Zm6.149,5.5a3.954,3.954,0,0,1-.761-.328l1.7-1.7a3.95,3.95,0,0,1,.328.761l.571,1.841Zm0,0" transform="translate(283.296 434.435)" fill="#4e4e4e"/>
    <g id="repeat" transform="translate(278.141 427.708)">
      <path id="Path_372" data-name="Path 372" d="M16.472,42.861a16.028,16.028,0,0,1-14.41-8.926.658.658,0,1,1,1.184-.572,14.78,14.78,0,0,0,26.452,0,.658.658,0,1,1,1.184.572,16.028,16.028,0,0,1-14.41,8.926Z" transform="translate(-1.988 -11.278)" fill="#4e4e4e"/>
      <path id="Path_373" data-name="Path 373" d="M30.29,9.87A.658.658,0,0,1,29.7,9.5a14.78,14.78,0,0,0-26.452,0,.658.658,0,1,1-1.184-.572,16.1,16.1,0,0,1,28.82,0,.658.658,0,0,1-.592.944Z" transform="translate(-1.988 0)" fill="#4e4e4e"/>
      <path id="Path_374" data-name="Path 374" d="M41.922,11.58H36.658a.658.658,0,0,1,0-1.316h4.606V5.658a.658.658,0,1,1,1.316,0v5.264A.658.658,0,0,1,41.922,11.58Z" transform="translate(-13.62 -1.71)" fill="#4e4e4e"/>
      <path id="Path_375" data-name="Path 375" d="M2.658,39.58A.658.658,0,0,1,2,38.922V33.658A.658.658,0,0,1,2.658,33H7.922a.658.658,0,1,1,0,1.316H3.316v4.606A.658.658,0,0,1,2.658,39.58Z" transform="translate(-1.992 -11.286)" fill="#4e4e4e"/>
    </g>
  </g>
</svg>
