<svg xmlns="http://www.w3.org/2000/svg" width="58" height="58" viewBox="0 0 58 58">
  <g id="Group_380" data-name="Group 380" transform="translate(-263 -211)">
    <circle id="Ellipse_53" data-name="Ellipse 53" cx="29" cy="29" r="29" transform="translate(263 211)" fill="#d5e5ff"/>
    <path id="man_1_" data-name="man (1)" d="M95.786,22.925a2.509,2.509,0,0,1-2.107-1.075.624.624,0,0,0-.81-.179.509.509,0,0,0-.2.737,3.5,3.5,0,0,0,1.233,1.117l-.611,2.521L91.822,24.5a.506.506,0,0,0-.027-.788.631.631,0,0,0-.831.053l-1.036,1.084-2.61-2.638a3.054,3.054,0,0,0,.4-1.258c5.052,1.352,10.105-2.115,10.105-6.878V9.648a.592.592,0,0,0-1.179,0v4.43c0,3.362-3.007,6.1-6.7,6.1s-6.7-2.735-6.7-6.1V9.529a3.261,3.261,0,0,0,3.094-2.381,21.445,21.445,0,0,0,8.091,2.723.582.582,0,0,0,.665-.457.547.547,0,0,0-.5-.605,20.117,20.117,0,0,1-8.357-3.016.6.6,0,0,0-.93.441,2.355,2.355,0,0,1-1.114,1.949,2.64,2.64,0,0,1-1.532.259.574.574,0,0,0-.591.474c-.006.052,0-.125,0,4.289a1.1,1.1,0,0,1-.663-.981V5.695a1.342,1.342,0,0,1,1.4-1.273.592.592,0,0,0,.547-.337,5.266,5.266,0,0,1,4.894-3.013h5.054a5.055,5.055,0,0,1,5.27,4.793v6.359a.592.592,0,0,0,1.179,0V5.865C99.733,2.631,96.84,0,93.284,0H88.229a6.488,6.488,0,0,0-5.841,3.378A2.43,2.43,0,0,0,80.21,5.695v6.53a2.242,2.242,0,0,0,1.848,2.119,7.193,7.193,0,0,0,4.488,6.207v.141a2.12,2.12,0,0,1-.721,1.58,2.572,2.572,0,0,1-1.742.654A5.824,5.824,0,0,0,78,28.457v3.166a.592.592,0,0,0,1.179,0V28.457a4.7,4.7,0,0,1,4.9-4.46,4.031,4.031,0,0,0,.77-.074l.822,3.394a.611.611,0,0,0,1.021.236l1.161-1.216-.717,5.22a.549.549,0,0,0,.512.6.581.581,0,0,0,.658-.465l.829-6.033c.038.038.365.372.407.406a.631.631,0,0,0,.83-.047l.353-.369.831,6.043a.581.581,0,0,0,.658.465.549.549,0,0,0,.512-.6l-.717-5.22,1.161,1.216a.611.611,0,0,0,1.021-.236l.822-3.394a4.056,4.056,0,0,0,.77.075,4.7,4.7,0,0,1,4.9,4.46v3.166a.592.592,0,0,0,1.179,0V28.457a5.824,5.824,0,0,0-6.083-5.532Zm-9.212,3.12-.611-2.522a3.644,3.644,0,0,0,.63-.438l1.429,1.444Z" transform="translate(201.78 223.623)" fill="#4e4e4e"/>
  </g>
</svg>
