<svg xmlns="http://www.w3.org/2000/svg" width="39.732" height="39.733" viewBox="0 0 39.732 39.733">
  <g id="resume" transform="translate(-0.007)">
    <g id="Group_525" data-name="Group 525" transform="translate(0.007)">
      <g id="Group_524" data-name="Group 524">
        <path id="Path_550" data-name="Path 550" d="M32.135,11.544a.776.776,0,0,0,.776-.776V2.328A2.331,2.331,0,0,0,30.583,0H2.335A2.331,2.331,0,0,0,.007,2.328V37.405a2.331,2.331,0,0,0,2.328,2.328H30.583a2.331,2.331,0,0,0,2.328-2.328V31.688a.776.776,0,1,0-1.552,0v5.717a.777.777,0,0,1-.776.776H2.335a.777.777,0,0,1-.776-.776V2.328a.777.777,0,0,1,.776-.776H30.583a.777.777,0,0,1,.776.776v8.439A.776.776,0,0,0,32.135,11.544Z" transform="translate(-0.007)" fill="#404040"/>
      </g>
    </g>
    <g id="Group_527" data-name="Group 527" transform="translate(9.319 4.191)">
      <g id="Group_526" data-name="Group 526">
        <path id="Path_551" data-name="Path 551" d="M127.147,54a7.136,7.136,0,0,0-4.9,12.329.768.768,0,0,0,.083.078,7.126,7.126,0,0,0,9.63,0,.777.777,0,0,0,.083-.078A7.136,7.136,0,0,0,127.147,54Zm0,12.727a5.558,5.558,0,0,1-3.375-1.138,3.88,3.88,0,0,1,6.75,0A5.558,5.558,0,0,1,127.147,66.727Zm-1.242-5.9v-.5a1.242,1.242,0,1,1,2.483,0v.5a1.242,1.242,0,1,1-2.483,0Zm5.738,3.623a5.384,5.384,0,0,0-2.286-1.917,2.779,2.779,0,0,0,.584-1.706v-.5a2.794,2.794,0,1,0-5.587,0v.5a2.779,2.779,0,0,0,.584,1.706,5.384,5.384,0,0,0-2.286,1.917,5.587,5.587,0,1,1,8.993,0Z" transform="translate(-120.007 -54)" fill="#404040"/>
      </g>
    </g>
    <g id="Group_529" data-name="Group 529" transform="translate(15.683 33.99)">
      <g id="Group_528" data-name="Group 528">
        <path id="Path_552" data-name="Path 552" d="M206.974,438h-4.191a.776.776,0,1,0,0,1.552h4.191a.776.776,0,0,0,0-1.552Z" transform="translate(-202.007 -438)" fill="#404040"/>
      </g>
    </g>
    <g id="Group_531" data-name="Group 531" transform="translate(8.854 29.645)">
      <g id="Group_530" data-name="Group 530">
        <path id="Path_553" data-name="Path 553" d="M125.8,382h-11.02a.776.776,0,1,0,0,1.552H125.8a.776.776,0,1,0,0-1.552Z" transform="translate(-114.007 -382)" fill="#404040"/>
      </g>
    </g>
    <g id="Group_533" data-name="Group 533" transform="translate(8.854 25.299)">
      <g id="Group_532" data-name="Group 532">
        <path id="Path_554" data-name="Path 554" d="M125.8,326h-11.02a.776.776,0,1,0,0,1.552H125.8a.776.776,0,1,0,0-1.552Z" transform="translate(-114.007 -326)" fill="#404040"/>
      </g>
    </g>
    <g id="Group_535" data-name="Group 535" transform="translate(5.539 20.953)">
      <g id="Group_534" data-name="Group 534">
        <path id="Path_555" data-name="Path 555" d="M72.612,270.227a.775.775,0,1,0,.227.549A.782.782,0,0,0,72.612,270.227Z" transform="translate(-71.287 -270)" fill="#404040"/>
      </g>
    </g>
    <g id="Group_537" data-name="Group 537" transform="translate(5.539 25.299)">
      <g id="Group_536" data-name="Group 536">
        <path id="Path_556" data-name="Path 556" d="M72.612,326.227a.776.776,0,1,0,.227.549A.784.784,0,0,0,72.612,326.227Z" transform="translate(-71.287 -326)" fill="#404040"/>
      </g>
    </g>
    <g id="Group_539" data-name="Group 539" transform="translate(5.539 29.645)">
      <g id="Group_538" data-name="Group 538">
        <path id="Path_557" data-name="Path 557" d="M72.612,382.227a.775.775,0,1,0,.227.549A.783.783,0,0,0,72.612,382.227Z" transform="translate(-71.287 -382)" fill="#404040"/>
      </g>
    </g>
    <g id="Group_541" data-name="Group 541" transform="translate(8.854 20.953)">
      <g id="Group_540" data-name="Group 540">
        <path id="Path_558" data-name="Path 558" d="M125.8,270h-11.02a.776.776,0,1,0,0,1.552H125.8a.776.776,0,1,0,0-1.552Z" transform="translate(-114.007 -270)" fill="#404040"/>
      </g>
    </g>
    <g id="Group_543" data-name="Group 543" transform="translate(23.101 9.675)">
      <g id="Group_542" data-name="Group 542">
        <path id="Path_559" data-name="Path 559" d="M312.6,125.113a3.259,3.259,0,0,0-4.452,1.193l-9.766,16.915a.777.777,0,0,0-.1.3l-.687,6.157a.776.776,0,0,0,1.231.711l4.989-3.674a.775.775,0,0,0,.212-.237l9.766-16.915A3.263,3.263,0,0,0,312.6,125.113ZM299.333,148.09l.359-3.215,2.246,1.3Zm3.737-3.057-2.957-1.707,7.837-13.574,2.957,1.707Zm9.378-16.243-.765,1.325-2.957-1.707.765-1.325a1.707,1.707,0,0,1,2.957,1.707Z" transform="translate(-297.589 -124.675)" fill="#404040"/>
      </g>
    </g>
  </g>
</svg>
