<svg xmlns="http://www.w3.org/2000/svg" width="52" height="52" viewBox="0 0 52 52">
  <g id="Group_375" data-name="Group 375" transform="translate(-264 -529)">
    <circle id="Ellipse_58" data-name="Ellipse 58" cx="26" cy="26" r="26" transform="translate(264 529)" fill="#d5e5ff"/>
    <g id="support" transform="translate(276.299 538.559)">
      <path id="Path_361" data-name="Path 361" d="M245.577,3.494a.541.541,0,0,0,.541-.541V.541a.541.541,0,1,0-1.082,0V2.953A.541.541,0,0,0,245.577,3.494Z" transform="translate(-231.924 0)" fill="#4e4e4e"/>
      <path id="Path_362" data-name="Path 362" d="M27.768,96.323l-.955-.953a1.811,1.811,0,0,0-2.143-.306l-1.8-1.8.088-.088a1.877,1.877,0,0,0,0-2.651,1.857,1.857,0,0,0-.942-.509,1.889,1.889,0,0,0,.075-.526,1.873,1.873,0,0,0-1.49-1.834,1.889,1.889,0,0,0,.075-.526,1.871,1.871,0,0,0-1.49-1.834,1.872,1.872,0,0,0-2-2.389l-3.568-.675a1.927,1.927,0,0,0-1.653.22.976.976,0,0,0-.082.085,1.881,1.881,0,0,0-1.973.434A1.861,1.861,0,0,0,9.36,84.3a1.891,1.891,0,0,0,.074.526,1.873,1.873,0,0,0-1.489,1.832,1.886,1.886,0,0,0,.075.528,1.875,1.875,0,0,0-1.163,2.894,1.874,1.874,0,0,0-.72,3.1l.087.087-1.8,1.8a1.808,1.808,0,0,0-2.046.355l-.956.953a1.807,1.807,0,0,0,0,2.552l1.193,1.192a.541.541,0,0,0,.764-.765L2.186,98.158a.725.725,0,0,1,0-1.021l.956-.953a.724.724,0,0,1,.882-.108.545.545,0,0,0,.068.083.539.539,0,0,0,.155.108l5.483,5.475a.533.533,0,0,0,.261.263.724.724,0,0,1-.03.988l-.955.954a.727.727,0,0,1-1.023,0L6.79,102.755a.541.541,0,1,0-.765.765l1.194,1.194a1.811,1.811,0,0,0,2.551,0l.956-.955a1.808,1.808,0,0,0,.253-2.234L13.005,99.5l.006-.007c.232-.24.878-.2,1.5-.152a7.781,7.781,0,0,0,1.423.009l2.219,2.217a1.808,1.808,0,0,0,.307,2.141l.956.955a1.808,1.808,0,0,0,2.551,0l5.8-5.79a1.807,1.807,0,0,0,0-2.552ZM13.414,83.3l2.346.444-1.4,1.4a3.409,3.409,0,0,1-.842-.612,2.488,2.488,0,0,1-.8-1.23h0a.473.473,0,0,1,0-.053,1.833,1.833,0,0,1,.7.047Zm-2.742.441a.8.8,0,0,1,1.009-.1,3.869,3.869,0,0,0,1.085,1.673,4.005,4.005,0,0,0,1.558.965.794.794,0,0,1-1.213,1.014h0l-2.439-2.435a.8.8,0,0,1,0-1.121ZM9.259,86.1a.8.8,0,0,1,1.124,0l1.964,1.96a.795.795,0,0,1-1.125,1.123h0l-1.49-1.49-.007-.007-.466-.466a.794.794,0,0,1,0-1.122Zm-1.416,2.36a.8.8,0,0,1,1.12,0l1.495,1.494a.794.794,0,0,1-1.125,1.121l-.542-.541h0l-.948-.947a.8.8,0,0,1,0-1.123ZM6.9,91.292a.8.8,0,0,1,1.126,0l.543.542a.794.794,0,0,1-1.125,1.12l-.068-.068,0,0,0,0L6.9,92.414a.794.794,0,0,1,0-1.122Zm11.022,6.147a.541.541,0,0,0-.765,0l-.481.481c-.457.457-1.286.4-2.087.344a2.859,2.859,0,0,0-2.352.475l-1.992,1.99L5.264,95.754l1.763-1.76a1.876,1.876,0,0,0,2.855-1.6s0-.009,0-.014H9.9a1.871,1.871,0,0,0,1.875-1.873s0-.009,0-.014h.014a1.869,1.869,0,0,0,1.875-1.887h.015a1.876,1.876,0,0,0,1.6-2.852l1.545-1.545a.793.793,0,0,1,.406-.216l.048-.007a.793.793,0,0,1,.673,1.345l-.471.469,0,0-.542.541a.541.541,0,1,0,.764.765l.473-.472h0l.071-.071a.8.8,0,0,1,1.122,0,.794.794,0,0,1,0,1.121l-.473.474h0l-.542.54a.541.541,0,0,0,.763.766l.544-.542a.794.794,0,0,1,1.123,1.122L19.832,91a.541.541,0,1,0,.765.765l.462-.463.008-.007a.794.794,0,0,1,1.124,1.122l-.47.47h0l-.746.745a.541.541,0,0,0,.764.765l.365-.365,1.75,1.748-4.981,4.975L17.086,98.97a2.128,2.128,0,0,0,.355-.286l.481-.48a.541.541,0,0,0,0-.765Zm9.081.67-5.8,5.79a.727.727,0,0,1-1.022,0l-.956-.955a.723.723,0,0,1,0-1.019l5.8-5.79a.727.727,0,0,1,1.023,0l.955.953a.725.725,0,0,1,0,1.021Z" transform="translate(-0.894 -77.741)" fill="#4e4e4e"/>
      <path id="Path_363" data-name="Path 363" d="M83.853,5.636a.541.541,0,0,0,.764-.766L82.646,2.9a.541.541,0,0,0-.764.766Z" transform="translate(-77.382 -2.597)" fill="#4e4e4e"/>
      <path id="Path_364" data-name="Path 364" d="M372.192,5.794a.539.539,0,0,0,.382-.158l1.969-1.967a.541.541,0,0,0-.765-.765L371.81,4.87a.541.541,0,0,0,.382.923Z" transform="translate(-351.739 -2.598)" fill="#4e4e4e"/>
      <path id="Path_365" data-name="Path 365" d="M60.085,430.355a.541.541,0,0,0,.007.765h0a.541.541,0,1,0-.008-.766Z" transform="translate(-56.759 -407.089)" fill="#4e4e4e"/>
      <path id="Path_366" data-name="Path 366" d="M333.052,333.2a.541.541,0,1,0-.243-1.024h0a.541.541,0,0,0,.246,1.023Z" transform="translate(-314.7 -314.281)" fill="#4e4e4e"/>
    </g>
  </g>
</svg>
