<svg id="group_2_" data-name="group (2)" xmlns="http://www.w3.org/2000/svg" width="60.585" height="60.585" viewBox="0 0 60.585 60.585">
  <g id="Group_587" data-name="Group 587" transform="translate(29.078 58.218)">
    <g id="Group_586" data-name="Group 586">
      <path id="Path_794" data-name="Path 794" d="M247.76,492.347a1.182,1.182,0,1,0,.347.837A1.192,1.192,0,0,0,247.76,492.347Z" transform="translate(-245.74 -492)" fill="#404040"/>
    </g>
  </g>
  <g id="Group_589" data-name="Group 589" transform="translate(0 12.476)">
    <g id="Group_588" data-name="Group 588">
      <path id="Path_795" data-name="Path 795" d="M54.261,131.663l-3.947-.943v-1.566a7.809,7.809,0,0,0,3.65-6.6v-4.41a7.805,7.805,0,0,0-13.653-5.174A10.432,10.432,0,0,0,30.3,105.437h0a10.432,10.432,0,0,0-10.013,7.549,7.805,7.805,0,0,0-13.671,5.153v4.41a7.809,7.809,0,0,0,3.65,6.6v1.566l-3.947.943A8.211,8.211,0,0,0,0,139.675v7.954a1.183,1.183,0,0,0,1.183,1.183h9.462v3.55a1.183,1.183,0,0,0,1.183,1.183H24.81a1.183,1.183,0,1,0,0-2.367H19.527v-5.208a1.183,1.183,0,1,0-2.367,0v5.208H13.012V145.84a8.615,8.615,0,0,1,6.628-8.4l5.82-1.395,3.745,8.519a1.183,1.183,0,0,0,1.083.707h0a1.183,1.183,0,0,0,1.083-.707l3.741-8.507,5.8,1.386a8.614,8.614,0,0,1,6.634,8.405v1.32a1.185,1.185,0,0,0,0,.926v3.087H43.424v-5.208a1.183,1.183,0,1,0-2.367,0v5.208h-5.8a1.183,1.183,0,1,0,0,2.367h13.47a1.183,1.183,0,0,0,1.183-1.183v-3.55H59.4a1.183,1.183,0,0,0,1.183-1.183v-7.954A8.211,8.211,0,0,0,54.261,131.663ZM46.154,112.7a5.45,5.45,0,0,1,5.443,5.443v.412H48.213a14.62,14.62,0,0,1-7.283-1.944A5.454,5.454,0,0,1,46.154,112.7Zm-5.443,9.66c0-.121.007-3.182.007-3.182a16.988,16.988,0,0,0,7.5,1.744H51.6v1.631a5.443,5.443,0,0,1-10.887,0v-.193ZM22.258,115.85a8.047,8.047,0,0,1,16.093,0V116l-4.392-2.58a1.183,1.183,0,0,0-1.506.26,8.936,8.936,0,0,1-6.866,3.2h-3.33ZM8.987,118.433v-.293a5.444,5.444,0,0,1,10.667-1.532,14.621,14.621,0,0,1-7.283,1.944H8.987Zm0,4.117v-1.631h3.385a16.987,16.987,0,0,0,7.5-1.747v3.378a5.443,5.443,0,0,1-10.887,0Zm1.658,23.291v.606H7.1v-5.257a1.183,1.183,0,1,0-2.367,0v5.257H2.367v-6.771a5.852,5.852,0,0,1,4.507-5.71l3.751-.9,2.448,5.864A10.985,10.985,0,0,0,10.645,145.84Zm3.786-9.8-1.8-4.3c0-.028,0-.057,0-.085v-1.5a7.758,7.758,0,0,0,3.579,0v1.428c0,.022,0,.044,0,.067,0,.037,0,.074.007.111Zm4.658-.909a11.123,11.123,0,0,0-2,.688l1.153-2.76,3.751.9a5.863,5.863,0,0,1,.849.274Zm5.873-2.466a8.216,8.216,0,0,0-2.418-1.008l-3.961-.949v-1.552a7.866,7.866,0,0,0,2.446-2.438,10.488,10.488,0,0,0,3.934,4.206Zm8.281,1.757-2.955,6.719-2.959-6.733v-2.44a10.421,10.421,0,0,0,5.914.011v2.442ZM30.3,130.039a8.056,8.056,0,0,1-8.047-8.047v-2.737h3.33a11.293,11.293,0,0,0,8-3.306l4.759,2.8v3.525A8.055,8.055,0,0,1,30.3,130.039Zm5.3.911h0a10.487,10.487,0,0,0,3.961-4.208A7.87,7.87,0,0,0,42,129.159v1.552l-3.961.949a8.219,8.219,0,0,0-2.432,1.017Zm5.855,4.189-3.742-.894a5.871,5.871,0,0,1,.871-.283l3.742-.9,1.157,2.772A11.126,11.126,0,0,0,41.464,135.139Zm2.9-3.364a1.182,1.182,0,0,0,.008-.129c0-.011,0-.022,0-.033v-1.461a7.756,7.756,0,0,0,3.579,0v1.5c0,.022,0,.043,0,.064l-1.807,4.326Zm13.857,14.671H55.852v-5.257a1.183,1.183,0,1,0-2.367,0v5.257h-3.57v-.6a10.984,10.984,0,0,0-2.42-6.9l2.456-5.88,3.76.9a5.852,5.852,0,0,1,4.507,5.71Z" transform="translate(0 -105.437)" fill="#404040"/>
    </g>
  </g>
  <g id="Group_591" data-name="Group 591" transform="translate(25.14 27.364)">
    <g id="Group_590" data-name="Group 590">
      <path id="Path_796" data-name="Path 796" d="M214.48,231.6a1.182,1.182,0,1,0,.347.837A1.192,1.192,0,0,0,214.48,231.6Z" transform="translate(-212.46 -231.25)" fill="#404040"/>
    </g>
  </g>
  <g id="Group_593" data-name="Group 593" transform="translate(33.053 27.364)">
    <g id="Group_592" data-name="Group 592">
      <path id="Path_797" data-name="Path 797" d="M281.35,231.6a1.182,1.182,0,1,0,.347.837A1.192,1.192,0,0,0,281.35,231.6Z" transform="translate(-279.33 -231.25)" fill="#404040"/>
    </g>
  </g>
  <g id="Group_595" data-name="Group 595" transform="translate(27.607 31.347)">
    <g id="Group_594" data-name="Group 594">
      <path id="Path_798" data-name="Path 798" d="M238.27,265.26a1.183,1.183,0,0,0-1.674,0,.9.9,0,0,1-1.269,0,1.183,1.183,0,1,0-1.674,1.674,3.268,3.268,0,0,0,4.616,0A1.183,1.183,0,0,0,238.27,265.26Z" transform="translate(-233.307 -264.913)" fill="#404040"/>
    </g>
  </g>
  <g id="Group_597" data-name="Group 597" transform="translate(46.932 6.39)">
    <g id="Group_596" data-name="Group 596">
      <path id="Path_799" data-name="Path 799" d="M398.615,54H397.8a1.183,1.183,0,1,0,0,2.367h.812a1.183,1.183,0,0,0,0-2.367Z" transform="translate(-396.62 -54)" fill="#404040"/>
    </g>
  </g>
  <g id="Group_599" data-name="Group 599" transform="translate(52.674 6.39)">
    <g id="Group_598" data-name="Group 598">
      <path id="Path_800" data-name="Path 800" d="M447.136,54h-.812a1.183,1.183,0,1,0,0,2.367h.812a1.183,1.183,0,0,0,0-2.367Z" transform="translate(-445.141 -54)" fill="#404040"/>
    </g>
  </g>
  <g id="Group_601" data-name="Group 601" transform="translate(50.209 8.855)">
    <g id="Group_600" data-name="Group 600">
      <path id="Path_801" data-name="Path 801" d="M425.494,74.831a1.183,1.183,0,0,0-1.183,1.183v.812a1.183,1.183,0,1,0,2.367,0v-.812A1.183,1.183,0,0,0,425.494,74.831Z" transform="translate(-424.311 -74.831)" fill="#404040"/>
    </g>
  </g>
  <g id="Group_603" data-name="Group 603" transform="translate(50.209 3.113)">
    <g id="Group_602" data-name="Group 602">
      <path id="Path_802" data-name="Path 802" d="M425.494,26.31a1.183,1.183,0,0,0-1.183,1.183V28.3a1.183,1.183,0,0,0,2.367,0v-.812A1.183,1.183,0,0,0,425.494,26.31Z" transform="translate(-424.311 -26.31)" fill="#404040"/>
    </g>
  </g>
  <g id="Group_605" data-name="Group 605" transform="translate(4.667 6.39)">
    <g id="Group_604" data-name="Group 604">
      <path id="Path_803" data-name="Path 803" d="M41.439,54h-.812a1.183,1.183,0,1,0,0,2.367h.812a1.183,1.183,0,1,0,0-2.367Z" transform="translate(-39.444 -54)" fill="#404040"/>
    </g>
  </g>
  <g id="Group_607" data-name="Group 607" transform="translate(10.409 6.39)">
    <g id="Group_606" data-name="Group 606">
      <path id="Path_804" data-name="Path 804" d="M89.96,54h-.812a1.183,1.183,0,1,0,0,2.367h.812a1.183,1.183,0,1,0,0-2.367Z" transform="translate(-87.965 -54)" fill="#404040"/>
    </g>
  </g>
  <g id="Group_609" data-name="Group 609" transform="translate(7.944 8.855)">
    <g id="Group_608" data-name="Group 608">
      <path id="Path_805" data-name="Path 805" d="M68.317,74.831a1.183,1.183,0,0,0-1.183,1.183v.812a1.183,1.183,0,1,0,2.367,0v-.812A1.183,1.183,0,0,0,68.317,74.831Z" transform="translate(-67.134 -74.831)" fill="#404040"/>
    </g>
  </g>
  <g id="Group_611" data-name="Group 611" transform="translate(7.944 3.113)">
    <g id="Group_610" data-name="Group 610">
      <path id="Path_806" data-name="Path 806" d="M68.317,26.31a1.183,1.183,0,0,0-1.183,1.183V28.3a1.183,1.183,0,1,0,2.367,0v-.812A1.183,1.183,0,0,0,68.317,26.31Z" transform="translate(-67.134 -26.31)" fill="#404040"/>
    </g>
  </g>
  <g id="Group_613" data-name="Group 613" transform="translate(29.109 4.507)">
    <g id="Group_612" data-name="Group 612">
      <path id="Path_807" data-name="Path 807" d="M247.183,38.087A1.183,1.183,0,0,0,246,39.27v3.113a1.183,1.183,0,0,0,2.367,0V39.27A1.183,1.183,0,0,0,247.183,38.087Z" transform="translate(-246 -38.087)" fill="#404040"/>
    </g>
  </g>
  <g id="Group_615" data-name="Group 615" transform="translate(29.109)">
    <g id="Group_614" data-name="Group 614">
      <path id="Path_808" data-name="Path 808" d="M248.02.347a1.183,1.183,0,0,0-2.02.837,1.183,1.183,0,1,0,2.02-.837Z" transform="translate(-246)" fill="#404040"/>
    </g>
  </g>
  <g id="Group_617" data-name="Group 617" transform="translate(22.394 2.669)">
    <g id="Group_616" data-name="Group 616">
      <path id="Path_809" data-name="Path 809" d="M193,24.634,191.269,22.9a1.183,1.183,0,0,0-1.674,1.674l1.732,1.732A1.183,1.183,0,1,0,193,24.634Z" transform="translate(-189.249 -22.556)" fill="#404040"/>
    </g>
  </g>
  <g id="Group_619" data-name="Group 619" transform="translate(34.035 2.604)">
    <g id="Group_618" data-name="Group 618">
      <path id="Path_810" data-name="Path 810" d="M291.435,22.353a1.183,1.183,0,0,0-1.674,0l-1.789,1.79a1.183,1.183,0,0,0,1.674,1.674l1.789-1.79A1.183,1.183,0,0,0,291.435,22.353Z" transform="translate(-287.625 -22.006)" fill="#404040"/>
    </g>
  </g>
</svg>
